<svg width="25" height="24" viewBox="0 0 25 24" fill="none" xmlns="http://www.w3.org/2000/svg">
<g clip-path="url(#clip0_450_839)">
<path d="M4.43958 20.9469H6.60662C7.21904 20.9469 7.71651 20.449 7.71463 19.8384C7.71463 19.8384 7.71463 19.8384 7.71463 19.8365V11.5059C7.71463 10.8953 7.21904 10.403 6.60662 10.4011H4.43958C3.82905 10.4011 3.33346 10.8971 3.33346 11.5059V19.8365C3.32969 20.4472 3.82339 20.9432 4.43582 20.9469C4.43582 20.9469 4.4377 20.9469 4.43958 20.9469ZM4.25115 11.5059C4.25115 11.4025 4.33594 11.318 4.43958 11.318H6.60662C6.71026 11.318 6.79505 11.4025 6.79505 11.5059V19.8365C6.79505 19.9399 6.71026 20.0244 6.60662 20.0244H4.43958C4.33594 20.0244 4.25115 19.9399 4.25115 19.8365V11.5059Z" fill="#252525"/>
<path d="M11.734 20.9469H13.8991C14.5116 20.9469 15.009 20.449 15.0072 19.8384C15.0072 19.8384 15.0072 19.8384 15.0072 19.8366V6.36356C15.0072 5.75295 14.5116 5.2607 13.8991 5.25882H11.734C11.1216 5.25882 10.626 5.75295 10.626 6.36356V19.8366C10.6222 20.4472 11.1159 20.9432 11.7284 20.9469C11.7302 20.9469 11.7321 20.9469 11.734 20.9469ZM11.5456 6.36356C11.5456 6.26023 11.6304 6.17568 11.734 6.17568H13.8991C14.0028 6.17568 14.0876 6.26023 14.0876 6.36356V19.8366C14.0876 19.9399 14.0028 20.0244 13.8991 20.0244H11.734C11.6304 20.0244 11.5456 19.9399 11.5456 19.8366V6.36356Z" fill="#252525"/>
<path d="M19.0265 20.9469H21.1917C21.8041 20.9469 22.2978 20.4528 22.2997 19.8422V1.10474C22.2997 0.494129 21.8041 0.00187882 21.1917 0H19.0265C18.4141 0 17.9204 0.494129 17.9185 1.10474V19.8365C17.9166 20.4472 18.4122 20.945 19.0246 20.9469C19.0246 20.9469 19.0246 20.9469 19.0265 20.9469ZM18.8381 1.10474C18.8381 1.00141 18.9229 0.916862 19.0265 0.916862H21.1917C21.2953 0.916862 21.3801 1.00141 21.3801 1.10474V19.8365C21.3801 19.9399 21.2953 20.0244 21.1917 20.0244H19.0265C18.9229 20.0244 18.8381 19.9399 18.8381 19.8365V1.10474Z" fill="#252525"/>
<path d="M24.5421 23.0869H0.915806V0.456552C0.915806 0.204791 0.710409 0 0.457903 0C0.205397 0 0 0.204791 0 0.456552V23.5434C0 23.7952 0.205397 24 0.457903 24H24.5421C24.7946 24 25 23.7952 25 23.5434C25 23.2917 24.7946 23.0869 24.5421 23.0869Z" fill="#252525"/>
</g>
<defs>
<clipPath id="clip0_450_839">
<rect width="25" height="24" fill="white"/>
</clipPath>
</defs>
</svg>
