<svg width="18" height="18" viewBox="0 0 18 18" fill="none" xmlns="http://www.w3.org/2000/svg">
<path d="M3.625 11.5C5.07475 11.5 6.25 10.3247 6.25 8.875C6.25 7.42525 5.07475 6.25 3.625 6.25C2.17525 6.25 1 7.42525 1 8.875C1 10.3247 2.17525 11.5 3.625 11.5Z" stroke="#0F1116" stroke-width="1.5" stroke-linecap="round" stroke-linejoin="round"/>
<path d="M14.125 6.25C15.5747 6.25 16.75 5.07475 16.75 3.625C16.75 2.17525 15.5747 1 14.125 1C12.6753 1 11.5 2.17525 11.5 3.625C11.5 5.07475 12.6753 6.25 14.125 6.25Z" stroke="#0F1116" stroke-width="1.5" stroke-linecap="round" stroke-linejoin="round"/>
<path d="M14.125 16.75C15.5747 16.75 16.75 15.5747 16.75 14.125C16.75 12.6753 15.5747 11.5 14.125 11.5C12.6753 11.5 11.5 12.6753 11.5 14.125C11.5 15.5747 12.6753 16.75 14.125 16.75Z" stroke="#0F1116" stroke-width="1.5" stroke-linecap="round" stroke-linejoin="round"/>
<path d="M5.98755 7.73751L11.7625 4.76251" stroke="#0F1116" stroke-width="1.5" stroke-linecap="round" stroke-linejoin="round"/>
<path d="M5.98755 10.0125L11.7625 12.9875" stroke="#0F1116" stroke-width="1.5" stroke-linecap="round" stroke-linejoin="round"/>
</svg>
