<svg width="16" height="16" viewBox="0 0 16 16" fill="none" xmlns="http://www.w3.org/2000/svg">
<path d="M6.57109 9.19951C6.78523 9.41806 7.04082 9.59169 7.32291 9.71022C7.60499 9.82875 7.90789 9.88981 8.21386 9.88981C8.51984 9.88981 8.82274 9.82875 9.10482 9.71022C9.3869 9.59169 9.6425 9.41806 9.85663 9.19951L12.4851 6.57107C12.9208 6.13538 13.1655 5.54446 13.1655 4.9283C13.1655 4.31214 12.9208 3.72122 12.4851 3.28553C12.0494 2.84984 11.4585 2.60507 10.8423 2.60507C10.2261 2.60507 9.63522 2.84984 9.19953 3.28553L8.87097 3.61408" stroke="#0F1116" stroke-width="2" stroke-linecap="round" stroke-linejoin="round"/>
<path d="M9.19945 6.5711C8.98531 6.35254 8.72971 6.17892 8.44763 6.06038C8.16555 5.94185 7.86265 5.8808 7.55668 5.8808C7.2507 5.8808 6.9478 5.94185 6.66572 6.06038C6.38364 6.17892 6.12804 6.35254 5.9139 6.5711L3.28547 9.19953C2.84978 9.63522 2.60501 10.2261 2.60501 10.8423C2.60501 11.4585 2.84978 12.0494 3.28547 12.4851C3.72116 12.9208 4.31208 13.1655 4.92824 13.1655C5.5444 13.1655 6.13532 12.9208 6.57101 12.4851L6.89957 12.1565" stroke="#0F1116" stroke-width="2" stroke-linecap="round" stroke-linejoin="round"/>
</svg>
