<svg width="230" height="27" viewBox="0 0 230 27" fill="none" xmlns="http://www.w3.org/2000/svg">
<g clip-path="url(#clip0_633_130)">
<path d="M147.967 25.595H147.949C147.877 25.595 147.803 25.6127 147.712 25.6127C147.309 25.6127 146.999 25.3932 146.999 24.5155C146.999 23.8023 146.999 22.9599 146.999 22.0273C146.999 19.5533 147.015 16.4759 147.033 14.9186C147.026 14.1381 146.709 13.2622 145.569 13.2622C145.405 13.2622 145.148 13.2799 144.966 13.2799C144.599 13.2799 144.398 13.5542 144.398 13.8285C144.398 14.0656 144.562 14.3045 144.909 14.3045H144.946C145.129 14.285 145.166 14.285 145.238 14.285C145.971 14.285 145.971 14.5965 145.971 15.8406C145.971 16.9024 145.953 18.3659 145.953 19.2985C145.953 19.5356 145.936 19.6277 145.898 19.6277C145.861 19.6277 145.806 19.5356 145.714 19.4082C145.093 18.603 143.994 18.0916 142.823 18.0916C140.444 18.0916 138.669 19.8683 138.671 22.429C138.671 25.0818 140.448 26.8019 142.826 26.8019C143.925 26.8019 145.113 26.3081 145.882 25.264C145.92 25.2269 145.937 25.2092 145.955 25.2092C146.01 25.2092 146.028 25.2817 146.045 25.3915C146.174 26.3612 146.942 26.6904 147.711 26.6904C147.948 26.6904 148.441 26.6355 148.441 26.1223C148.441 25.848 148.277 25.5914 147.965 25.5914L147.967 25.595ZM142.862 25.7985C141.032 25.7985 139.751 24.5172 139.751 22.4326C139.751 20.3284 141.012 19.0472 142.86 19.0472C144.598 19.0472 145.953 20.3815 145.953 22.4308C145.953 24.4624 144.582 25.7985 142.862 25.7985Z" fill="#252525"/>
<path d="M157.693 25.5985C156.941 25.3348 156.81 24.8835 156.81 23.5121C156.81 22.7971 156.847 21.8203 156.904 21.1991C156.923 21.0097 156.923 20.8416 156.923 20.6735C156.923 18.5676 155.738 17.796 153.987 17.796C152.37 17.796 150.791 18.6048 150.791 19.3197C150.791 19.6206 151.036 19.8276 151.317 19.8276C151.45 19.8276 151.598 19.771 151.712 19.64C152.145 19.1693 152.896 18.7375 153.911 18.7375C155.435 18.7375 155.867 19.5445 155.867 20.5797C155.867 20.6735 155.849 20.7868 155.849 20.8806C155.849 21.0115 155.773 21.0699 155.548 21.1071C154.759 21.238 153.235 21.5212 152.071 21.8787C150.678 22.3122 150.059 23.2714 150.059 24.2111C150.059 25.5082 151.207 26.8054 153.106 26.8054C154.196 26.8054 155.401 26.2603 155.964 25.356C155.984 25.3189 156.021 25.2994 156.04 25.2994C156.077 25.2994 156.097 25.3366 156.115 25.3932C156.285 26.0887 156.962 26.5966 157.507 26.5966C157.828 26.5966 158.015 26.3329 158.015 26.071C158.015 25.8834 157.92 25.6764 157.695 25.602L157.693 25.5985ZM155.831 22.5157C155.831 25.4109 154.046 25.8055 153.087 25.8073C151.827 25.8073 151.075 25.018 151.075 24.2288C151.075 22.9121 152.635 22.5352 155.587 22.0645H155.644C155.775 22.0645 155.831 22.1211 155.831 22.2715V22.5157Z" fill="#252525"/>
<path d="M164.124 25.7312H164.048C163.86 25.7507 163.691 25.7684 163.522 25.7684C162.055 25.7684 162.018 24.7721 162.018 23.305C162.018 21.9123 162.075 19.9763 162.075 19.2613C162.075 19.0366 162.075 18.9976 162.376 18.9976H164.03C164.388 18.9976 164.558 18.7534 164.558 18.4898C164.558 18.2455 164.388 18.0013 164.03 18.0013H162.356C162.112 18.0013 162.075 18.0013 162.073 17.7943C162.073 17.7943 162.11 16.2901 162.11 15.745C162.11 15.3504 161.847 15.1628 161.565 15.1628C161.302 15.1628 161.018 15.3521 161.018 15.7096V16.1786C161.018 16.8369 160.999 17.7394 160.999 17.8155C160.999 17.9836 160.962 18.0031 160.794 18.0031H159.704C159.346 18.0031 159.176 18.2473 159.176 18.4915C159.176 18.7552 159.346 18.9994 159.704 18.9994H160.813C160.946 18.9994 161.001 19.0189 161.001 19.2065V19.5073C161.001 20.4293 160.964 22.7228 160.965 23.9262C160.965 24.7544 160.965 26.8036 163.372 26.8036C164.124 26.8036 164.575 26.7081 164.575 26.2197C164.575 25.9754 164.406 25.7312 164.122 25.7312H164.124Z" fill="#252525"/>
<path d="M174.015 25.5985C173.263 25.3348 173.132 24.8835 173.132 23.5121C173.132 22.7971 173.169 21.8203 173.226 21.1991C173.245 21.0097 173.245 20.8416 173.245 20.6735C173.245 18.5676 172.059 17.796 170.311 17.796C168.693 17.796 167.115 18.6048 167.115 19.3197C167.115 19.6206 167.359 19.8276 167.64 19.8276C167.773 19.8276 167.922 19.771 168.035 19.64C168.469 19.1693 169.219 18.7375 170.235 18.7375C171.759 18.7375 172.19 19.5462 172.19 20.5797C172.19 20.6735 172.173 20.7868 172.173 20.8806C172.173 21.0133 172.097 21.0699 171.872 21.1071C171.082 21.238 169.559 21.5212 168.393 21.8787C167 22.3122 166.38 23.2714 166.38 24.2111C166.38 25.5082 167.529 26.8054 169.428 26.8054C170.518 26.8054 171.721 26.2603 172.286 25.356C172.305 25.3189 172.343 25.2994 172.362 25.2994C172.399 25.2994 172.419 25.3366 172.436 25.3932C172.606 26.0887 173.284 26.5966 173.829 26.5966C174.149 26.5966 174.337 26.3329 174.337 26.071C174.337 25.8834 174.241 25.6764 174.017 25.602L174.015 25.5985ZM172.153 22.5157C172.153 25.4109 170.368 25.8055 169.408 25.8073C168.148 25.8073 167.396 25.018 167.396 24.2288C167.396 22.9121 168.957 22.5352 171.909 22.0645H171.966C172.097 22.0645 172.153 22.1211 172.153 22.2715V22.5157Z" fill="#252525"/>
<path d="M180.368 22.0468C179.786 21.7459 178.883 21.3708 178.356 21.1265C177.735 20.8257 177.434 20.3373 177.434 19.886C177.434 19.2649 177.979 18.6826 178.957 18.6826C179.071 18.6826 180.743 18.6826 180.743 20.1869C180.743 20.5249 181.007 20.6753 181.27 20.6753C181.347 20.6753 181.741 20.6187 181.741 20.224V20.1869C181.722 19.7551 181.722 19.4719 181.722 19.2082C181.722 18.9268 181.722 18.6632 181.741 18.2685V18.2508C181.741 17.95 181.515 17.7996 181.27 17.7996C181.083 17.7996 180.895 17.8934 180.839 18.1004C180.819 18.157 180.839 18.3252 180.745 18.3252C180.708 18.3252 180.669 18.3252 180.632 18.288C180.35 18.0633 179.653 17.7819 178.977 17.7819C177.303 17.7819 176.42 18.8543 176.42 19.9444C176.42 20.7726 176.91 21.599 177.943 22.0308C180.125 22.9334 180.952 23.3846 180.952 24.381C180.952 25.2835 180.03 25.8285 179.073 25.8285C178 25.8285 177.06 25.2092 177.06 24.588C177.06 24.4553 177.098 24.3633 177.098 24.2305C177.098 23.8925 176.853 23.7226 176.59 23.7226C176.326 23.7226 176.064 23.8925 176.064 24.2111V24.2482C176.084 24.6995 176.101 24.9809 176.101 25.264C176.101 25.5472 176.084 25.8285 176.064 26.2426V26.2798C176.064 26.5807 176.308 26.7311 176.553 26.7311C176.777 26.7311 177.004 26.6744 177.004 26.2055C177.004 26.1489 177.023 26.1117 177.06 26.1117C177.098 26.1117 177.154 26.1489 177.193 26.1878C177.588 26.5258 178.266 26.8072 179.074 26.8072C181.217 26.8072 182.044 25.4144 182.044 24.381C182.044 23.5351 181.536 22.652 180.37 22.0503L180.368 22.0468Z" fill="#252525"/>
<path d="M192.31 25.7861C192.198 25.7861 192.103 25.8055 192.028 25.8055C191.841 25.8055 191.671 25.7684 191.483 25.5808C188.078 22.4609 187.59 22.0096 187.59 21.8769C187.59 21.8203 187.627 21.7636 187.74 21.6893C188.661 21.0876 190.108 20.109 191.218 19.3569C191.35 19.2631 191.538 19.187 191.687 19.187C191.95 19.187 191.8 19.2065 192.064 19.2065H192.083C192.421 19.2065 192.609 18.9622 192.609 18.718C192.609 18.2668 192.251 18.2101 192.064 18.2296C191.575 18.2491 191.124 18.2491 190.71 18.2491C190.296 18.2491 189.864 18.2491 189.393 18.2296H189.356C189.018 18.2296 188.848 18.4738 188.848 18.718C188.848 19.1693 189.299 19.1693 189.637 19.1693C189.731 19.1693 189.77 19.1888 189.77 19.2259C189.77 19.2454 189.751 19.2826 189.694 19.3197C186.725 21.3708 186.648 21.3885 186.441 21.3885C186.254 21.3885 186.121 21.2947 186.121 21.0876C186.121 21.0876 186.158 17.1006 186.157 14.6761C186.157 14.2638 186.026 13.2657 184.482 13.2675C183.824 13.2675 183.486 13.3241 183.486 13.8125C183.486 14.0762 183.674 14.3381 184.012 14.3381H184.443C184.914 14.3576 185.065 14.5629 185.065 15.0902C185.065 16.106 185.084 17.366 185.084 18.6826C185.084 20.9761 185.066 23.5138 185.029 25.4888C185.029 25.6958 184.897 25.8091 184.709 25.8091C184.408 25.8091 184.371 25.7896 184.144 25.7896H184.125C183.767 25.7896 183.58 26.0533 183.58 26.317C183.58 26.524 183.713 26.8249 184.144 26.8054C184.576 26.7859 185.027 26.7682 185.498 26.7682C185.987 26.7682 186.477 26.7859 186.965 26.8054H186.985C187.342 26.8054 187.53 26.5612 187.53 26.2975C187.53 26.0338 187.342 25.7896 186.985 25.7896H186.965C186.702 25.8091 186.721 25.8091 186.44 25.8091C186.215 25.8091 186.119 25.6781 186.119 25.4888C186.1 24.5862 186.1 23.9846 186.1 23.5333C186.1 22.5547 186.119 22.3865 186.401 22.3865C186.588 22.3865 186.778 22.406 186.965 22.6113C187.547 23.213 189.091 24.6411 190.087 25.618C190.106 25.6374 190.124 25.6746 190.124 25.6941C190.124 25.7135 190.124 25.8268 189.636 25.8268C189.505 25.8268 189.128 25.8268 189.13 26.3152C189.13 26.5594 189.299 26.8036 189.637 26.8036H189.675C190.108 26.7842 190.521 26.7665 190.935 26.7665C191.349 26.7665 191.8 26.7842 192.288 26.8036H192.308C192.665 26.8036 192.835 26.54 192.833 26.2763C192.833 25.956 192.607 25.7684 192.306 25.7878L192.31 25.7861Z" fill="#252525"/>
<path d="M201.634 24.3969C201.501 24.3969 201.37 24.4535 201.257 24.565C200.675 25.2233 199.903 25.8055 198.53 25.8073C196.725 25.8073 195.371 24.5491 195.371 22.498C195.371 22.2344 195.408 22.16 195.596 22.16C196.01 22.16 197.608 22.1795 199.018 22.1777C199.714 22.1777 200.353 22.1777 200.786 22.1583C201.746 22.1193 202.158 21.5937 202.158 20.8983C202.158 19.8258 201.029 17.8155 198.452 17.8155C196.233 17.8155 194.26 19.6206 194.26 22.3671C194.26 25.018 196.123 26.8036 198.511 26.8036C200.88 26.8036 202.195 25.3737 202.195 24.942C202.195 24.6411 201.914 24.3969 201.63 24.3969H201.634ZM198.473 18.7552C200.392 18.7552 201.05 20.1656 201.05 20.7107C201.05 21.0115 200.88 21.2186 200.429 21.238C199.903 21.2575 198.849 21.2575 197.872 21.2575C195.691 21.2575 195.522 21.2575 195.522 21.0699C195.522 20.3744 196.668 18.757 198.473 18.7552Z" fill="#252525"/>
<path d="M208.553 25.733H208.477C208.29 25.7525 208.12 25.7702 207.952 25.7702C206.485 25.7702 206.447 24.7738 206.447 23.3068C206.447 21.9158 206.504 19.978 206.504 19.2649C206.504 19.0401 206.504 19.0012 206.805 19.0012H208.46C208.817 19.0012 208.987 18.757 208.987 18.4933C208.987 18.2491 208.817 18.0049 208.46 18.0049H206.785C206.541 18.0049 206.504 18.0049 206.502 17.7996C206.502 17.7996 206.54 16.2954 206.54 15.7503C206.54 15.3557 206.276 15.1681 205.994 15.1681C205.731 15.1681 205.449 15.3557 205.449 15.7131V16.1821C205.449 16.8404 205.43 17.743 205.43 17.819C205.43 17.9872 205.393 18.0066 205.225 18.0066H204.135C203.777 18.0066 203.607 18.2526 203.607 18.4968C203.607 18.7605 203.777 19.0047 204.135 19.0047H205.244C205.377 19.0047 205.432 19.0224 205.432 19.21V19.5108C205.432 20.4328 205.395 22.7263 205.395 23.9297C205.395 24.7561 205.395 26.8072 207.801 26.8054C208.553 26.8054 209.005 26.7116 209.005 26.2232C209.005 25.979 208.835 25.7348 208.553 25.7348V25.733Z" fill="#252525"/>
<path d="M218.049 24.4146C217.881 24.4146 217.711 24.4889 217.561 24.696C217.035 25.4109 216.113 25.7879 215.154 25.7879C212.992 25.7879 211.882 24.0023 211.882 22.291C211.882 20.2046 213.31 18.7357 215.153 18.7357C215.887 18.7357 216.6 18.9605 217.071 19.5055C217.296 19.7692 217.241 19.994 217.258 20.3904C217.278 20.6912 217.542 20.8416 217.786 20.8416C218.067 20.8416 218.331 20.6912 218.331 20.3709V20.3337C218.313 19.9019 218.313 19.6011 218.313 19.318C218.313 19.0171 218.313 18.7357 218.331 18.3393V18.3022C218.331 17.9819 218.067 17.8332 217.786 17.8332C217.579 17.8332 217.354 17.927 217.336 18.1535C217.317 18.2473 217.299 18.3606 217.242 18.3606C217.205 18.3606 217.186 18.3411 217.149 18.3234C216.604 18.0031 215.832 17.7607 215.023 17.7607C212.654 17.7607 210.794 19.7356 210.794 22.3689C210.794 24.6075 212.318 26.8054 215.214 26.8054C217.244 26.8054 218.655 25.5454 218.655 25.0004C218.655 24.68 218.373 24.4181 218.053 24.4181L218.049 24.4146Z" fill="#252525"/>
<path d="M229.425 25.7861H229.405C229.142 25.7861 229.161 25.8056 228.878 25.8056C228.653 25.8056 228.558 25.6728 228.558 25.4675C228.558 23.9828 228.538 21.8203 228.519 21.0292C228.443 18.9799 226.938 18.0208 225.378 18.0208C224.325 18.0208 223.254 18.4544 222.596 19.3003C222.559 19.3374 222.539 19.3569 222.52 19.3569C222.5 19.3569 222.482 19.3197 222.482 19.2631C222.482 18.9994 222.5 17.3076 222.5 15.7839C222.5 15.407 222.5 15.0495 222.5 14.7115C222.5 13.9417 222.105 13.3772 221.222 13.2834C221.072 13.2657 220.902 13.2462 220.752 13.2462C219.943 13.2462 219.793 13.4904 219.793 13.8108C219.793 14.0744 219.98 14.3363 220.318 14.3363H220.338C220.5 14.3234 220.638 14.3169 220.752 14.3169C221.24 14.3363 221.391 14.5983 221.391 15.0867C221.391 16.214 221.41 17.7376 221.41 19.3357C221.41 21.592 221.392 23.9616 221.373 25.4852C221.373 25.6923 221.26 25.8056 221.072 25.8056C220.771 25.8056 220.715 25.7861 220.47 25.7861H220.451C220.093 25.7861 219.906 26.0498 219.906 26.3134C219.906 26.5205 220.039 26.8196 220.47 26.8019C220.904 26.7824 221.373 26.7647 221.844 26.7629C222.314 26.7629 222.82 26.7824 223.311 26.8001H223.33C223.688 26.8001 223.875 26.5364 223.875 26.2922C223.875 25.9914 223.631 25.7666 223.311 25.7843C223.047 25.8038 223.066 25.8038 222.785 25.8038C222.559 25.8038 222.465 25.6728 222.465 25.4835C222.465 24.6004 222.445 23.7722 222.445 23.0767C222.445 22.4007 222.465 21.8362 222.465 21.4787C222.52 19.994 223.949 19.0153 225.266 19.0153C226.339 19.0153 227.335 19.6737 227.429 21.2327C227.448 21.5902 227.466 22.4733 227.466 23.4519C227.466 24.1474 227.448 24.8623 227.448 25.4835C227.448 25.6728 227.335 25.8038 227.147 25.8038C226.846 25.8038 226.827 25.7861 226.583 25.7861H226.563C226.206 25.7861 226.018 26.0498 226.018 26.3117C226.018 26.5187 226.149 26.8196 226.583 26.8001C227.016 26.7806 227.466 26.7612 227.937 26.7612C228.407 26.7612 228.915 26.7806 229.404 26.7983H229.423C229.781 26.7983 229.968 26.5541 229.968 26.2904C229.968 26.0268 229.781 25.7825 229.423 25.7825L229.425 25.7861Z" fill="#252525"/>
<path d="M134.661 22.8555L132.509 21.2504V11.6801C132.509 10.728 131.734 9.95111 130.78 9.95111H116.729C115.777 9.95111 115 10.7262 115 11.6801V21.8716C115 22.8237 115.775 23.6005 116.729 23.6005H122.999L119.812 25.9754C119.608 26.1276 119.566 26.4161 119.718 26.6196C119.87 26.8231 120.159 26.8656 120.362 26.7134L123.772 24.1721L127.182 26.7134C127.264 26.7736 127.361 26.8054 127.457 26.8054C127.598 26.8054 127.735 26.7399 127.827 26.6214C127.979 26.4179 127.936 26.1294 127.733 25.9772L124.546 23.6023H130.78C131.599 23.6023 132.286 23.0289 132.463 22.2627L134.16 23.528C134.235 23.5828 134.323 23.6094 134.41 23.6094C134.537 23.6094 134.663 23.551 134.746 23.4413C134.884 23.2572 134.845 22.9935 134.661 22.8555ZM131.674 20.6275L127.32 17.3802C127.136 17.2421 126.873 17.2811 126.735 17.4651C126.597 17.6492 126.636 17.9128 126.82 18.0509L131.674 21.6698V21.8716C131.674 22.3635 131.274 22.7635 131.102 22.7635H117.049C116.237 22.7635 115.837 22.3635 115.837 21.8716V11.6801C115.837 11.1881 116.237 10.7882 116.729 10.7882H130.782C131.274 10.7882 131.674 11.1881 131.674 11.6801V20.6275Z" fill="#252525"/>
<path d="M177.22 7.37094H177.855C178.313 7.37625 178.77 7.33201 179.219 7.23999C179.579 7.16743 179.922 7.0294 180.23 6.83119C180.499 6.65246 180.717 6.40647 180.86 6.11625C181.014 5.78532 181.088 5.42254 181.078 5.05799C181.129 4.37667 180.821 3.71835 180.264 3.32018C179.556 2.90784 178.743 2.71318 177.926 2.7645C177.623 2.7645 177.292 2.77689 176.931 2.7999C176.6 2.81936 176.269 2.8636 175.946 2.93616V9.8414H177.218V7.37094H177.22ZM177.22 3.9024C177.429 3.88293 177.694 3.87231 178.014 3.87231C178.243 3.87231 178.471 3.89001 178.696 3.92717C178.889 3.95726 179.074 4.02096 179.246 4.11299C179.398 4.19793 179.524 4.32358 179.609 4.47577C179.703 4.65274 179.747 4.85094 179.74 5.05268C179.782 5.44555 179.591 5.82602 179.25 6.02423C178.805 6.22066 178.322 6.30914 177.837 6.28437H177.22V3.90417V3.9024Z" fill="#252525"/>
<path d="M185.268 9.78122C185.573 9.65203 185.847 9.46091 186.072 9.21669C186.302 8.96009 186.477 8.66102 186.587 8.3354C186.712 7.96731 186.772 7.58152 186.769 7.19397C186.774 6.80818 186.71 6.42239 186.581 6.05784C186.47 5.73576 186.295 5.43846 186.068 5.18362C185.843 4.94118 185.571 4.75006 185.265 4.62264C184.939 4.48992 184.59 4.42267 184.24 4.42621C183.89 4.42267 183.543 4.48815 183.221 4.62264C182.916 4.75006 182.642 4.94118 182.417 5.18362C182.184 5.43669 182.003 5.73399 181.888 6.05784C181.761 6.42239 181.697 6.80641 181.702 7.19397C181.697 7.58329 181.761 7.96908 181.888 8.3354C182.001 8.66102 182.178 8.96009 182.408 9.21669C182.63 9.45914 182.9 9.65203 183.203 9.78122C183.529 9.91925 183.879 9.98827 184.233 9.98296C184.589 9.9865 184.941 9.91925 185.268 9.78122ZM183.297 8.45574C183.053 8.08234 182.934 7.63992 182.959 7.19397C182.936 6.75332 183.053 6.31621 183.297 5.94812C183.514 5.64551 183.87 5.47208 184.242 5.48801C184.613 5.47208 184.969 5.64551 185.185 5.94812C185.429 6.31621 185.548 6.75332 185.523 7.19397C185.546 7.63992 185.427 8.08234 185.183 8.45574H185.185C184.969 8.76012 184.613 8.93532 184.242 8.92116C183.868 8.93709 183.513 8.76189 183.297 8.45574Z" fill="#252525"/>
<path d="M194.872 4.5554H193.61C193.552 4.83855 193.481 5.14293 193.398 5.47032C193.315 5.79771 193.228 6.13041 193.138 6.47018C193.048 6.80996 192.954 7.14266 192.858 7.46474C192.764 7.78681 192.672 8.08235 192.584 8.35311C192.483 8.04342 192.384 7.72311 192.287 7.39395C192.191 7.06302 192.099 6.73386 192.014 6.40471C191.929 6.07555 191.85 5.75347 191.777 5.44024C191.703 5.12701 191.635 4.83324 191.575 4.55894H190.648C190.59 4.83501 190.521 5.12878 190.441 5.44024C190.361 5.7517 190.278 6.07378 190.193 6.40471C190.105 6.73386 190.013 7.06479 189.915 7.39395C189.818 7.72311 189.719 8.04342 189.616 8.35311C189.522 8.08235 189.427 7.78858 189.331 7.46474C189.236 7.14089 189.146 6.80996 189.057 6.47018C188.969 6.13041 188.885 5.79594 188.804 5.47032C188.723 5.1447 188.652 4.83855 188.592 4.5554H187.296C187.438 5.07392 187.583 5.58181 187.732 6.08086C187.88 6.5799 188.029 7.05417 188.179 7.50544C188.328 7.9567 188.475 8.38142 188.62 8.77783C188.765 9.176 188.907 9.52817 189.045 9.83609H190.048C190.225 9.33881 190.4 8.80791 190.577 8.2487C190.754 7.68771 190.92 7.1108 191.076 6.51619C191.23 7.10903 191.4 7.68594 191.586 8.2487C191.772 8.80968 191.95 9.33881 192.126 9.83609H193.117C193.258 9.5264 193.403 9.17423 193.552 8.77783C193.701 8.38142 193.848 7.9567 193.993 7.50544C194.141 7.05417 194.288 6.5799 194.433 6.08086C194.578 5.58181 194.723 5.07392 194.869 4.5554H194.872Z" fill="#252525"/>
<path d="M196.169 9.19193C196.405 9.44676 196.695 9.64319 197.019 9.76884C197.406 9.91218 197.817 9.9812 198.229 9.97058C198.408 9.97058 198.587 9.95996 198.765 9.9405C198.942 9.92103 199.103 9.89625 199.256 9.8644C199.392 9.83785 199.526 9.80423 199.659 9.76353C199.755 9.73521 199.847 9.69982 199.937 9.65735L199.776 8.65749C199.588 8.73181 199.394 8.79021 199.195 8.82915C198.928 8.88577 198.656 8.91232 198.383 8.91055C197.967 8.93886 197.557 8.81499 197.226 8.56193C196.95 8.30709 196.787 7.95139 196.776 7.57622H200.261C200.268 7.50897 200.271 7.43465 200.277 7.3497C200.282 7.26476 200.28 7.19043 200.28 7.12142C200.335 6.39585 200.117 5.6756 199.67 5.10223C199.231 4.63681 198.608 4.38905 197.967 4.42445C197.656 4.42445 197.348 4.48461 197.059 4.60141C196.762 4.71998 196.495 4.90049 196.272 5.13054C196.031 5.38184 195.844 5.67914 195.722 6.00476C195.576 6.39585 195.506 6.80996 195.515 7.22583C195.511 7.59746 195.564 7.96732 195.676 8.32302C195.776 8.6451 195.945 8.94063 196.171 9.19193H196.169ZM196.895 6.22243C196.946 6.07908 197.022 5.94636 197.121 5.82956C197.22 5.71453 197.343 5.61897 197.481 5.55172C197.635 5.4774 197.804 5.442 197.976 5.44554C198.137 5.44023 198.298 5.47386 198.445 5.54111C198.574 5.60304 198.688 5.6933 198.778 5.80656C198.872 5.92335 198.942 6.05785 198.985 6.20119C199.033 6.35692 199.056 6.51796 199.056 6.68077H196.783C196.803 6.52504 196.84 6.37108 196.893 6.22243H196.895Z" fill="#252525"/>
<path d="M204.579 5.64906L204.791 4.61911C204.731 4.59965 204.65 4.57841 204.549 4.55364C204.448 4.53063 204.345 4.51824 204.237 4.49878C204.129 4.48285 204.021 4.46869 203.915 4.45807C203.809 4.44746 203.713 4.44392 203.632 4.44392C203.237 4.44038 202.843 4.47931 202.455 4.56071C202.156 4.62265 201.861 4.70583 201.574 4.80847V9.83609H202.795V5.59774C202.899 5.56765 203.006 5.54465 203.112 5.52695C203.253 5.50041 203.397 5.48802 203.542 5.48625C203.749 5.48448 203.956 5.50218 204.159 5.54111C204.301 5.56942 204.441 5.60482 204.579 5.64729V5.64906Z" fill="#252525"/>
<path d="M207.801 4.42445C207.49 4.42445 207.182 4.48462 206.893 4.60141C206.596 4.71998 206.327 4.90049 206.106 5.13054C205.865 5.38184 205.678 5.67914 205.556 6.00476C205.41 6.39585 205.341 6.80996 205.349 7.22583C205.345 7.59746 205.398 7.96732 205.51 8.32302C205.61 8.64333 205.779 8.9371 206.003 9.18839C206.239 9.44322 206.529 9.63965 206.853 9.7653C207.24 9.91041 207.651 9.9812 208.065 9.97235C208.244 9.97235 208.422 9.96173 208.601 9.94227C208.778 9.9228 208.939 9.89802 209.091 9.86617C209.228 9.83962 209.362 9.806 209.495 9.7653C209.59 9.73698 209.682 9.70159 209.773 9.65912L209.612 8.65926C209.424 8.73358 209.229 8.79198 209.031 8.83091C208.764 8.88754 208.491 8.91409 208.217 8.91232C207.801 8.94063 207.391 8.81676 207.06 8.5637C206.784 8.30886 206.621 7.95316 206.61 7.57799H210.095C210.1 7.51074 210.105 7.43642 210.109 7.35147C210.112 7.26653 210.114 7.1922 210.114 7.12319C210.169 6.39762 209.951 5.67737 209.504 5.104C209.065 4.63858 208.442 4.39082 207.801 4.42622V4.42445ZM206.619 6.679C206.639 6.52327 206.676 6.37108 206.731 6.22243C206.782 6.07731 206.858 5.94459 206.957 5.82779C207.056 5.71276 207.178 5.6172 207.316 5.54995C207.47 5.47563 207.64 5.44023 207.812 5.44377C207.975 5.44023 208.134 5.47209 208.283 5.53934C208.412 5.60127 208.525 5.69153 208.615 5.80479C208.709 5.92158 208.78 6.05608 208.822 6.19942C208.87 6.35515 208.893 6.51619 208.893 6.679H206.621H206.619Z" fill="#252525"/>
<path d="M211.836 9.2344C212.073 9.47684 212.362 9.66442 212.68 9.78476C213.04 9.91572 213.42 9.97766 213.802 9.97058C214.19 9.97235 214.576 9.94403 214.958 9.88209C215.266 9.83431 215.572 9.76707 215.871 9.68035V2.00354L214.65 2.20528V4.74121C214.489 4.65981 214.319 4.59079 214.146 4.53947C213.926 4.47576 213.698 4.44745 213.47 4.45099C213.126 4.44391 212.785 4.51116 212.47 4.64919C212.185 4.77661 211.932 4.9695 211.732 5.21017C211.521 5.46855 211.365 5.76408 211.272 6.08439C211.164 6.45248 211.111 6.8365 211.116 7.22052C211.111 7.61161 211.173 7.99917 211.302 8.36726C211.417 8.69111 211.599 8.98841 211.838 9.23617L211.836 9.2344ZM212.675 5.9499C212.898 5.63843 213.268 5.46678 213.65 5.49686C213.845 5.49686 214.038 5.52694 214.22 5.59242C214.37 5.64374 214.515 5.71276 214.65 5.79947V8.82914C214.561 8.84861 214.45 8.86807 214.312 8.884C214.146 8.9017 213.979 8.91055 213.813 8.90878C213.408 8.92824 213.017 8.75836 212.755 8.45043C212.48 8.08765 212.344 7.63816 212.371 7.18335C212.348 6.75155 212.454 6.32153 212.677 5.9499H212.675Z" fill="#252525"/>
<path d="M221.849 9.96881C222.231 9.97588 222.612 9.91041 222.971 9.77768C223.289 9.65734 223.578 9.46799 223.813 9.22201C224.05 8.97071 224.233 8.67341 224.349 8.34779C224.479 7.9797 224.541 7.59037 224.535 7.20105C224.539 6.82057 224.488 6.44009 224.38 6.07377C224.288 5.757 224.135 5.4597 223.93 5.19956C223.734 4.95711 223.482 4.76422 223.197 4.63857C222.884 4.50231 222.544 4.43506 222.203 4.44037C221.973 4.43683 221.743 4.46691 221.522 4.52885C221.343 4.5784 221.168 4.64742 221.001 4.73059V2L219.778 2.20174V9.67504C220.078 9.76175 220.384 9.829 220.692 9.87678C221.074 9.93872 221.46 9.96881 221.847 9.96881H221.849ZM221.43 5.58534C221.614 5.52517 221.806 5.49509 222.001 5.49686C222.382 5.46855 222.75 5.6402 222.971 5.95166C223.196 6.32329 223.302 6.75332 223.279 7.18689C223.304 7.63816 223.169 8.08411 222.898 8.44512C222.636 8.75481 222.245 8.92293 221.84 8.90347C221.674 8.90347 221.506 8.89639 221.339 8.87869C221.226 8.8663 221.113 8.84684 221.001 8.82383V5.78885C221.132 5.70214 221.277 5.63489 221.428 5.58711L221.43 5.58534Z" fill="#252525"/>
<path d="M225.841 10.6961C225.594 10.6944 225.349 10.6466 225.121 10.5546L224.9 11.5332C225.034 11.5934 225.176 11.6376 225.319 11.6642C225.503 11.7049 225.691 11.7243 225.88 11.7243C226.133 11.7279 226.385 11.696 226.629 11.6288C226.843 11.5651 227.043 11.4606 227.216 11.3208C227.402 11.1686 227.561 10.9864 227.692 10.7846C227.852 10.5369 227.99 10.2767 228.106 10.006C228.875 8.23808 229.508 6.41532 230.002 4.55186H228.738C228.584 5.18541 228.413 5.84018 228.225 6.51619C228.037 7.19221 227.837 7.83106 227.623 8.43097C227.496 8.14075 227.367 7.82752 227.238 7.49128C227.108 7.15504 226.986 6.81527 226.873 6.47726C226.76 6.13749 226.652 5.80125 226.554 5.47209C226.455 5.14293 226.372 4.83501 226.307 4.55363H225.004C225.268 5.50041 225.585 6.42948 225.951 7.34086C226.303 8.21684 226.675 9.02381 227.062 9.7653C226.961 10.0343 226.8 10.275 226.59 10.4714C226.376 10.6324 226.112 10.7121 225.845 10.6961H225.841Z" fill="#252525"/>
</g>
<g clip-path="url(#clip1_633_130)">
<path d="M10.3117 15.5028L10.0369 15.4555C9.72667 15.281 9.08177 14.832 9.08177 14.1086L9.13483 9.66084C9.13483 9.66084 9.18109 8.23417 10.9158 7.95559C10.8219 7.87851 10.7621 7.76086 10.7621 7.62969C10.7621 7.39574 10.9525 7.20642 11.1879 7.20642C11.4233 7.20642 11.6138 7.39574 11.6138 7.62969C11.6138 7.72435 11.5825 7.81225 11.5281 7.88257C11.5975 7.8731 11.6832 7.86093 11.7825 7.84876C11.743 7.7852 11.7199 7.70947 11.7199 7.62969C11.7199 7.39574 11.9104 7.20642 12.1458 7.20642C12.3811 7.20642 12.5716 7.39574 12.5716 7.62969C12.5716 7.67837 12.5635 7.72435 12.5485 7.76762C12.5825 7.76492 12.6165 7.76221 12.6519 7.75815C12.6356 7.71218 12.6247 7.66349 12.6247 7.61211C12.6247 7.37816 12.8152 7.18884 13.0505 7.18884C13.2859 7.18884 13.4764 7.37816 13.4764 7.61211C13.4764 7.64456 13.4723 7.67702 13.4655 7.70812C13.5077 7.70677 13.5512 7.70542 13.5934 7.70406C13.5866 7.67431 13.5839 7.64456 13.5839 7.61346C13.5839 7.37951 13.7744 7.19019 14.0097 7.19019C14.2451 7.19019 14.4356 7.37951 14.4356 7.61346C14.4356 7.64456 14.4315 7.67566 14.4261 7.70406C14.4696 7.70542 14.5118 7.70677 14.554 7.70947C14.5472 7.67837 14.5431 7.64591 14.5431 7.61346C14.5431 7.37951 14.7336 7.19019 14.9689 7.19019C15.2043 7.19019 15.3948 7.37951 15.3948 7.61346C15.3948 7.67702 15.3812 7.73652 15.3553 7.79061C15.422 7.80143 15.4873 7.8136 15.5499 7.82712C15.5172 7.76762 15.4982 7.69865 15.4982 7.62428C15.4982 7.39033 15.6887 7.20101 15.924 7.20101C16.1594 7.20101 16.3499 7.39033 16.3499 7.62428C16.3499 7.78791 16.256 7.9299 16.1186 8.00022C16.1717 8.02321 16.222 8.04755 16.2696 8.07459C16.2696 8.07459 16.4356 8.15032 16.6451 8.30313C16.7036 8.27338 16.769 8.25715 16.8383 8.25715C17.0737 8.25715 17.2642 8.44648 17.2642 8.68042C17.2642 8.75345 17.2452 8.82242 17.2125 8.88327C17.2996 9.01309 17.373 9.15914 17.4234 9.32142C17.4982 9.19836 17.6329 9.11451 17.788 9.11451C18.0234 9.11451 18.2139 9.30384 18.2139 9.53778C18.2139 9.77173 18.0234 9.96105 17.788 9.96105C17.6737 9.96105 17.569 9.91508 17.4928 9.84205V10.1761C17.569 10.103 17.6737 10.0571 17.788 10.0571C18.0234 10.0571 18.2139 10.2464 18.2139 10.4803C18.2139 10.7143 18.0234 10.9036 17.788 10.9036C17.6737 10.9036 17.569 10.8576 17.4928 10.7846V11.1186C17.569 11.0456 17.6737 10.9996 17.788 10.9996C18.0234 10.9996 18.2139 11.1889 18.2139 11.4229C18.2139 11.6568 18.0234 11.8462 17.788 11.8462C17.6737 11.8462 17.569 11.8002 17.4928 11.7272V12.0882C17.569 12.0152 17.6737 11.9692 17.788 11.9692C18.0234 11.9692 18.2139 12.1585 18.2139 12.3925C18.2139 12.6264 18.0234 12.8158 17.788 12.8158C17.6737 12.8158 17.569 12.7698 17.4928 12.6968V13.0308C17.569 12.9578 17.6737 12.9118 17.788 12.9118C18.0234 12.9118 18.2139 13.1011 18.2139 13.335C18.2139 13.569 18.0234 13.7583 17.788 13.7583C17.6737 13.7583 17.569 13.7123 17.4928 13.6393V13.9733C17.569 13.9003 17.6737 13.8543 17.788 13.8543C18.0234 13.8543 18.2139 14.0437 18.2139 14.2776C18.2139 14.5115 18.0234 14.7009 17.788 14.7009C17.6397 14.7009 17.5091 14.6251 17.4329 14.5115C17.3921 14.6671 17.3241 14.8483 17.2098 15.0051C17.2383 15.0619 17.256 15.1268 17.256 15.1958C17.256 15.4298 17.0656 15.6191 16.8302 15.6191C16.6615 15.6191 16.5173 15.5217 16.4479 15.3811C16.3417 15.4054 16.0057 15.4974 15.7404 15.7367C15.7812 15.7232 15.8261 15.7165 15.8723 15.7165C16.1077 15.7165 16.2982 15.9058 16.2982 16.1397C16.2982 16.3737 16.1077 16.563 15.8723 16.563C15.637 16.563 15.4628 16.3885 15.4478 16.1695C15.4179 16.2574 15.3975 16.3534 15.3907 16.4589C15.3907 16.4589 15.4478 16.6198 15.5512 16.8064C15.6288 16.7172 15.7444 16.6604 15.8737 16.6604C16.1091 16.6604 16.2996 16.8497 16.2996 17.0836C16.2996 17.1891 16.2601 17.2865 16.1962 17.3595C16.2832 17.3811 17.5676 17.7192 18.4969 18.655C18.5744 18.5752 18.6833 18.5252 18.803 18.5252C19.0384 18.5252 19.2289 18.7145 19.2289 18.9485C19.2289 19.1053 19.1431 19.2419 19.0152 19.3149C19.2397 19.6895 19.3962 20.1277 19.4397 20.6402L19.4928 24.0818C19.4928 24.0818 19.4479 24.7945 19.6874 24.9932C23.8833 22.7511 26.7364 18.348 26.7364 13.281C26.7392 5.94877 20.754 0 13.3703 0C10.9729 0 8.72394 0.627468 6.77833 1.72554C6.80418 1.77963 6.81915 1.84048 6.81915 1.90539C6.81915 2.13934 6.62867 2.32866 6.39329 2.32866C6.25587 2.32866 6.13478 2.26375 6.05587 2.16368C5.89805 2.26646 5.74158 2.37194 5.5892 2.48147C5.74838 2.54368 5.85995 2.69649 5.85995 2.87635C5.85995 3.11029 5.66947 3.29962 5.43409 3.29962C5.21368 3.29962 5.03137 3.13328 5.0096 2.91827C1.95513 5.35511 0 9.09423 0 13.2891C0 18.2371 2.72113 22.5537 6.75792 24.8404C6.83411 24.7782 7.10351 24.5253 7.05725 24.1156V21.4151C7.05725 21.4151 6.84364 18.344 10.0396 17.392C10.0396 17.392 11.3716 17.2337 11.1049 16.2276C10.9076 15.4825 10.5063 15.4636 10.3117 15.5041V15.5028ZM16.8343 17.5137C16.5989 17.5137 16.4084 17.3243 16.4084 17.0904C16.4084 16.8564 16.5989 16.6671 16.8343 16.6671C17.0696 16.6671 17.2601 16.8564 17.2601 17.0904C17.2601 17.3243 17.0696 17.5137 16.8343 17.5137ZM16.8343 16.5698C16.5989 16.5698 16.4084 16.3804 16.4084 16.1465C16.4084 15.9125 16.5989 15.7232 16.8343 15.7232C17.0696 15.7232 17.2601 15.9125 17.2601 16.1465C17.2601 16.3804 17.0696 16.5698 16.8343 16.5698ZM17.7935 17.5137C17.5581 17.5137 17.3676 17.3243 17.3676 17.0904C17.3676 16.8564 17.5581 16.6671 17.7935 16.6671C18.0288 16.6671 18.2193 16.8564 18.2193 17.0904C18.2193 17.3243 18.0288 17.5137 17.7935 17.5137ZM17.7935 16.5698C17.5581 16.5698 17.3676 16.3804 17.3676 16.1465C17.3676 15.9125 17.5581 15.7232 17.7935 15.7232C18.0288 15.7232 18.2193 15.9125 18.2193 16.1465C18.2193 16.3804 18.0288 16.5698 17.7935 16.5698ZM17.7935 15.6258C17.5581 15.6258 17.3676 15.4365 17.3676 15.2026C17.3676 14.9686 17.5581 14.7793 17.7935 14.7793C18.0288 14.7793 18.2193 14.9686 18.2193 15.2026C18.2193 15.4365 18.0288 15.6258 17.7935 15.6258ZM18.8057 18.4359C18.5703 18.4359 18.3799 18.2466 18.3799 18.0127C18.3799 17.7787 18.5703 17.5894 18.8057 17.5894C19.0411 17.5894 19.2316 17.7787 19.2316 18.0127C19.2316 18.2466 19.0411 18.4359 18.8057 18.4359ZM18.8057 17.5177C18.5703 17.5177 18.3799 17.3284 18.3799 17.0944C18.3799 16.8605 18.5703 16.6712 18.8057 16.6712C19.0411 16.6712 19.2316 16.8605 19.2316 17.0944C19.2316 17.3284 19.0411 17.5177 18.8057 17.5177ZM18.8057 16.5738C18.5703 16.5738 18.3799 16.3845 18.3799 16.1505C18.3799 15.9166 18.5703 15.7273 18.8057 15.7273C19.0411 15.7273 19.2316 15.9166 19.2316 16.1505C19.2316 16.3845 19.0411 16.5738 18.8057 16.5738ZM19.7391 11.0145C19.9744 11.0145 20.1649 11.2038 20.1649 11.4378C20.1649 11.6717 19.9744 11.861 19.7391 11.861C19.5037 11.861 19.3132 11.6717 19.3132 11.4378C19.3132 11.2038 19.5037 11.0145 19.7391 11.0145ZM19.3132 10.4939C19.3132 10.2599 19.5037 10.0706 19.7391 10.0706C19.9744 10.0706 20.1649 10.2599 20.1649 10.4939C20.1649 10.7278 19.9744 10.9171 19.7391 10.9171C19.5037 10.9171 19.3132 10.7278 19.3132 10.4939ZM19.7105 11.9773C19.9459 11.9773 20.1364 12.1667 20.1364 12.4006C20.1364 12.6346 19.9459 12.8239 19.7105 12.8239C19.4751 12.8239 19.2846 12.6346 19.2846 12.4006C19.2846 12.1667 19.4751 11.9773 19.7105 11.9773ZM19.7105 12.9212C19.9459 12.9212 20.1364 13.1106 20.1364 13.3445C20.1364 13.5785 19.9459 13.7678 19.7105 13.7678C19.4751 13.7678 19.2846 13.5785 19.2846 13.3445C19.2846 13.1106 19.4751 12.9212 19.7105 12.9212ZM19.7105 13.8651C19.9459 13.8651 20.1364 14.0545 20.1364 14.2884C20.1364 14.5224 19.9459 14.7117 19.7105 14.7117C19.4751 14.7117 19.2846 14.5224 19.2846 14.2884C19.2846 14.0545 19.4751 13.8651 19.7105 13.8651ZM19.7636 20.3237C19.5282 20.3237 19.3377 20.1344 19.3377 19.9005C19.3377 19.6665 19.5282 19.4772 19.7636 19.4772C19.9989 19.4772 20.1894 19.6665 20.1894 19.9005C20.1894 20.1344 19.9989 20.3237 19.7636 20.3237ZM19.7636 19.3798C19.5282 19.3798 19.3377 19.1905 19.3377 18.9566C19.3377 18.7226 19.5282 18.5333 19.7636 18.5333C19.9989 18.5333 20.1894 18.7226 20.1894 18.9566C20.1894 19.1905 19.9989 19.3798 19.7636 19.3798ZM19.7636 18.4359C19.5282 18.4359 19.3377 18.2466 19.3377 18.0127C19.3377 17.7787 19.5282 17.5894 19.7636 17.5894C19.9989 17.5894 20.1894 17.7787 20.1894 18.0127C20.1894 18.2466 19.9989 18.4359 19.7636 18.4359ZM19.7636 17.5177C19.5282 17.5177 19.3377 17.3284 19.3377 17.0944C19.3377 16.8605 19.5282 16.6712 19.7636 16.6712C19.9989 16.6712 20.1894 16.8605 20.1894 17.0944C20.1894 17.3284 19.9989 17.5177 19.7636 17.5177ZM19.7636 16.5738C19.5282 16.5738 19.3377 16.3845 19.3377 16.1505C19.3377 15.9166 19.5282 15.7273 19.7636 15.7273C19.9989 15.7273 20.1894 15.9166 20.1894 16.1505C20.1894 16.3845 19.9989 16.5738 19.7636 16.5738ZM20.7228 18.4359C20.4874 18.4359 20.2969 18.2466 20.2969 18.0127C20.2969 17.7787 20.4874 17.5894 20.7228 17.5894C20.9581 17.5894 21.1486 17.7787 21.1486 18.0127C21.1486 18.2466 20.9581 18.4359 20.7228 18.4359ZM20.7228 17.5177C20.4874 17.5177 20.2969 17.3284 20.2969 17.0944C20.2969 16.8605 20.4874 16.6712 20.7228 16.6712C20.9581 16.6712 21.1486 16.8605 21.1486 17.0944C21.1486 17.3284 20.9581 17.5177 20.7228 17.5177ZM20.7228 16.5738C20.4874 16.5738 20.2969 16.3845 20.2969 16.1505C20.2969 15.9166 20.4874 15.7273 20.7228 15.7273C20.9581 15.7273 21.1486 15.9166 21.1486 16.1505C21.1486 16.3845 20.9581 16.5738 20.7228 16.5738ZM24.5024 11.9124C24.7378 11.9124 24.9283 12.1017 24.9283 12.3357C24.9283 12.5696 24.7378 12.759 24.5024 12.759C24.267 12.759 24.0765 12.5696 24.0765 12.3357C24.0765 12.1017 24.267 11.9124 24.5024 11.9124ZM24.5024 12.8658C24.7378 12.8658 24.9283 13.0551 24.9283 13.2891C24.9283 13.523 24.7378 13.7123 24.5024 13.7123C24.267 13.7123 24.0765 13.523 24.0765 13.2891C24.0765 13.0551 24.267 12.8658 24.5024 12.8658ZM23.5459 10.9618C23.7813 10.9618 23.9718 11.1511 23.9718 11.385C23.9718 11.619 23.7813 11.8083 23.5459 11.8083C23.3105 11.8083 23.1201 11.619 23.1201 11.385C23.1201 11.1511 23.3105 10.9618 23.5459 10.9618ZM23.5459 11.9057C23.7813 11.9057 23.9718 12.095 23.9718 12.3289C23.9718 12.5629 23.7813 12.7522 23.5459 12.7522C23.3105 12.7522 23.1201 12.5629 23.1201 12.3289C23.1201 12.095 23.3105 11.9057 23.5459 11.9057ZM23.5459 12.8766C23.7813 12.8766 23.9718 13.0659 23.9718 13.2999C23.9718 13.5338 23.7813 13.7232 23.5459 13.7232C23.3105 13.7232 23.1201 13.5338 23.1201 13.2999C23.1201 13.0659 23.3105 12.8766 23.5459 12.8766ZM23.5459 13.8205C23.7813 13.8205 23.9718 14.0098 23.9718 14.2438C23.9718 14.4777 23.7813 14.6671 23.5459 14.6671C23.3105 14.6671 23.1201 14.4777 23.1201 14.2438C23.1201 14.0098 23.3105 13.8205 23.5459 13.8205ZM23.5459 14.7644C23.7813 14.7644 23.9718 14.9538 23.9718 15.1877C23.9718 15.4216 23.7813 15.611 23.5459 15.611C23.3105 15.611 23.1201 15.4216 23.1201 15.1877C23.1201 14.9538 23.3105 14.7644 23.5459 14.7644ZM22.5867 10.9618C22.8221 10.9618 23.0126 11.1511 23.0126 11.385C23.0126 11.619 22.8221 11.8083 22.5867 11.8083C22.3513 11.8083 22.1609 11.619 22.1609 11.385C22.1609 11.1511 22.3513 10.9618 22.5867 10.9618ZM22.5867 11.9057C22.8221 11.9057 23.0126 12.095 23.0126 12.3289C23.0126 12.5629 22.8221 12.7522 22.5867 12.7522C22.3513 12.7522 22.1609 12.5629 22.1609 12.3289C22.1609 12.095 22.3513 11.9057 22.5867 11.9057ZM22.5867 12.8766C22.8221 12.8766 23.0126 13.0659 23.0126 13.2999C23.0126 13.5338 22.8221 13.7232 22.5867 13.7232C22.3513 13.7232 22.1609 13.5338 22.1609 13.2999C22.1609 13.0659 22.3513 12.8766 22.5867 12.8766ZM22.5867 13.8205C22.8221 13.8205 23.0126 14.0098 23.0126 14.2438C23.0126 14.4777 22.8221 14.6671 22.5867 14.6671C22.3513 14.6671 22.1609 14.4777 22.1609 14.2438C22.1609 14.0098 22.3513 13.8205 22.5867 13.8205ZM22.5867 14.7644C22.8221 14.7644 23.0126 14.9538 23.0126 15.1877C23.0126 15.4216 22.8221 15.611 22.5867 15.611C22.3513 15.611 22.1609 15.4216 22.1609 15.1877C22.1609 14.9538 22.3513 14.7644 22.5867 14.7644ZM22.5867 15.6826C22.8221 15.6826 23.0126 15.872 23.0126 16.1059C23.0126 16.3399 22.8221 16.5292 22.5867 16.5292C22.3513 16.5292 22.1609 16.3399 22.1609 16.1059C22.1609 15.872 22.3513 15.6826 22.5867 15.6826ZM22.5867 16.6265C22.8221 16.6265 23.0126 16.8159 23.0126 17.0498C23.0126 17.2838 22.8221 17.4731 22.5867 17.4731C22.3513 17.4731 22.1609 17.2838 22.1609 17.0498C22.1609 16.8159 22.3513 16.6265 22.5867 16.6265ZM21.6275 10.0179C21.8629 10.0179 22.0534 10.2072 22.0534 10.4411C22.0534 10.6751 21.8629 10.8644 21.6275 10.8644C21.3922 10.8644 21.2017 10.6751 21.2017 10.4411C21.2017 10.2072 21.3922 10.0179 21.6275 10.0179ZM21.6275 10.9618C21.8629 10.9618 22.0534 11.1511 22.0534 11.385C22.0534 11.619 21.8629 11.8083 21.6275 11.8083C21.3922 11.8083 21.2017 11.619 21.2017 11.385C21.2017 11.1511 21.3922 10.9618 21.6275 10.9618ZM21.6275 11.9057C21.8629 11.9057 22.0534 12.095 22.0534 12.3289C22.0534 12.5629 21.8629 12.7522 21.6275 12.7522C21.3922 12.7522 21.2017 12.5629 21.2017 12.3289C21.2017 12.095 21.3922 11.9057 21.6275 11.9057ZM21.6275 12.8766C21.8629 12.8766 22.0534 13.0659 22.0534 13.2999C22.0534 13.5338 21.8629 13.7232 21.6275 13.7232C21.3922 13.7232 21.2017 13.5338 21.2017 13.2999C21.2017 13.0659 21.3922 12.8766 21.6275 12.8766ZM21.6275 13.8205C21.8629 13.8205 22.0534 14.0098 22.0534 14.2438C22.0534 14.4777 21.8629 14.6671 21.6275 14.6671C21.3922 14.6671 21.2017 14.4777 21.2017 14.2438C21.2017 14.0098 21.3922 13.8205 21.6275 13.8205ZM21.6275 14.7644C21.8629 14.7644 22.0534 14.9538 22.0534 15.1877C22.0534 15.4216 21.8629 15.611 21.6275 15.611C21.3922 15.611 21.2017 15.4216 21.2017 15.1877C21.2017 14.9538 21.3922 14.7644 21.6275 14.7644ZM21.6275 15.6826C21.8629 15.6826 22.0534 15.872 22.0534 16.1059C22.0534 16.3399 21.8629 16.5292 21.6275 16.5292C21.3922 16.5292 21.2017 16.3399 21.2017 16.1059C21.2017 15.872 21.3922 15.6826 21.6275 15.6826ZM21.6275 16.6265C21.8629 16.6265 22.0534 16.8159 22.0534 17.0498C22.0534 17.2838 21.8629 17.4731 21.6275 17.4731C21.3922 17.4731 21.2017 17.2838 21.2017 17.0498C21.2017 16.8159 21.3922 16.6265 21.6275 16.6265ZM20.7214 15.6299C20.486 15.6299 20.2955 15.4406 20.2955 15.2066C20.2955 14.9727 20.486 14.7834 20.7214 14.7834C20.9568 14.7834 21.1472 14.9727 21.1472 15.2066C21.1472 15.4406 20.9568 15.6299 20.7214 15.6299ZM20.6969 9.12668C20.9323 9.12668 21.1228 9.31601 21.1228 9.54995C21.1228 9.7839 20.9323 9.97322 20.6969 9.97322C20.4615 9.97322 20.271 9.7839 20.271 9.54995C20.271 9.31601 20.4615 9.12668 20.6969 9.12668ZM20.6969 10.0706C20.9323 10.0706 21.1228 10.2599 21.1228 10.4939C21.1228 10.7278 20.9323 10.9171 20.6969 10.9171C20.4615 10.9171 20.271 10.7278 20.271 10.4939C20.271 10.2599 20.4615 10.0706 20.6969 10.0706ZM20.6969 11.0145C20.9323 11.0145 21.1228 11.2038 21.1228 11.4378C21.1228 11.6717 20.9323 11.861 20.6969 11.861C20.4615 11.861 20.271 11.6717 20.271 11.4378C20.271 11.2038 20.4615 11.0145 20.6969 11.0145ZM20.6683 11.9773C20.9037 11.9773 21.0942 12.1667 21.0942 12.4006C21.0942 12.6346 20.9037 12.8239 20.6683 12.8239C20.433 12.8239 20.2425 12.6346 20.2425 12.4006C20.2425 12.1667 20.433 11.9773 20.6683 11.9773ZM20.6683 12.9212C20.9037 12.9212 21.0942 13.1106 21.0942 13.3445C21.0942 13.5785 20.9037 13.7678 20.6683 13.7678C20.433 13.7678 20.2425 13.5785 20.2425 13.3445C20.2425 13.1106 20.433 12.9212 20.6683 12.9212ZM20.6683 13.8651C20.9037 13.8651 21.0942 14.0545 21.0942 14.2884C21.0942 14.5224 20.9037 14.7117 20.6683 14.7117C20.433 14.7117 20.2425 14.5224 20.2425 14.2884C20.2425 14.0545 20.433 13.8651 20.6683 13.8651ZM19.7622 15.6299C19.5268 15.6299 19.3363 15.4406 19.3363 15.2066C19.3363 14.9727 19.5268 14.7834 19.7622 14.7834C19.9976 14.7834 20.1881 14.9727 20.1881 15.2066C20.1881 15.4406 19.9976 15.6299 19.7622 15.6299ZM19.7377 9.97322C19.5023 9.97322 19.3118 9.7839 19.3118 9.54995C19.3118 9.31601 19.5023 9.12668 19.7377 9.12668C19.9731 9.12668 20.1636 9.31601 20.1636 9.54995C20.1636 9.7839 19.9731 9.97322 19.7377 9.97322ZM19.7064 8.15303C19.9418 8.15303 20.1323 8.34235 20.1323 8.5763C20.1323 8.81025 19.9418 8.99957 19.7064 8.99957C19.471 8.99957 19.2806 8.81025 19.2806 8.5763C19.2806 8.34235 19.471 8.15303 19.7064 8.15303ZM18.803 15.6286C18.5676 15.6286 18.3771 15.4392 18.3771 15.2053C18.3771 14.9713 18.5676 14.782 18.803 14.782C19.0384 14.782 19.2289 14.9713 19.2289 15.2053C19.2289 15.4392 19.0384 15.6286 18.803 15.6286ZM18.7785 9.12533C19.0139 9.12533 19.2044 9.31465 19.2044 9.5486C19.2044 9.78255 19.0139 9.97187 18.7785 9.97187C18.5431 9.97187 18.3527 9.78255 18.3527 9.5486C18.3527 9.31465 18.5431 9.12533 18.7785 9.12533ZM18.7785 10.0692C19.0139 10.0692 19.2044 10.2586 19.2044 10.4925C19.2044 10.7265 19.0139 10.9158 18.7785 10.9158C18.5431 10.9158 18.3527 10.7265 18.3527 10.4925C18.3527 10.2586 18.5431 10.0692 18.7785 10.0692ZM18.7785 11.0131C19.0139 11.0131 19.2044 11.2025 19.2044 11.4364C19.2044 11.6704 19.0139 11.8597 18.7785 11.8597C18.5431 11.8597 18.3527 11.6704 18.3527 11.4364C18.3527 11.2025 18.5431 11.0131 18.7785 11.0131ZM18.7499 11.976C18.9853 11.976 19.1758 12.1653 19.1758 12.3993C19.1758 12.6332 18.9853 12.8225 18.7499 12.8225C18.5146 12.8225 18.3241 12.6332 18.3241 12.3993C18.3241 12.1653 18.5146 11.976 18.7499 11.976ZM18.7499 12.9199C18.9853 12.9199 19.1758 13.1092 19.1758 13.3432C19.1758 13.5771 18.9853 13.7664 18.7499 13.7664C18.5146 13.7664 18.3241 13.5771 18.3241 13.3432C18.3241 13.1092 18.5146 12.9199 18.7499 12.9199ZM18.7499 13.8638C18.9853 13.8638 19.1758 14.0531 19.1758 14.2871C19.1758 14.521 18.9853 14.7103 18.7499 14.7103C18.5146 14.7103 18.3241 14.521 18.3241 14.2871C18.3241 14.0531 18.5146 13.8638 18.7499 13.8638ZM17.8424 7.19965C18.0778 7.19965 18.2683 7.38898 18.2683 7.62292C18.2683 7.85687 18.0778 8.0462 17.8424 8.0462C17.6071 8.0462 17.4166 7.85687 17.4166 7.62292C17.4166 7.38898 17.6071 7.19965 17.8424 7.19965ZM17.8424 8.15303C18.0778 8.15303 18.2683 8.34235 18.2683 8.5763C18.2683 8.81025 18.0778 8.99957 17.8424 8.99957C17.6071 8.99957 17.4166 8.81025 17.4166 8.5763C17.4166 8.34235 17.6071 8.15303 17.8424 8.15303ZM16.8832 6.24763C17.1186 6.24763 17.3091 6.43696 17.3091 6.6709C17.3091 6.90485 17.1186 7.09417 16.8832 7.09417C16.6479 7.09417 16.4574 6.90485 16.4574 6.6709C16.4574 6.43696 16.6479 6.24763 16.8832 6.24763ZM16.8832 7.25375C17.1186 7.25375 17.3091 7.44307 17.3091 7.67702C17.3091 7.91096 17.1186 8.10029 16.8832 8.10029C16.6479 8.10029 16.4574 7.91096 16.4574 7.67702C16.4574 7.44307 16.6479 7.25375 16.8832 7.25375ZM15.924 4.39498C16.1594 4.39498 16.3499 4.5843 16.3499 4.81825C16.3499 5.0522 16.1594 5.24152 15.924 5.24152C15.6887 5.24152 15.4982 5.0522 15.4982 4.81825C15.4982 4.5843 15.6887 4.39498 15.924 4.39498ZM15.924 6.24763C16.1594 6.24763 16.3499 6.43696 16.3499 6.6709C16.3499 6.90485 16.1594 7.09417 15.924 7.09417C15.6887 7.09417 15.4982 6.90485 15.4982 6.6709C15.4982 6.43696 15.6887 6.24763 15.924 6.24763ZM14.9676 3.38752C15.2029 3.38752 15.3934 3.57684 15.3934 3.81079C15.3934 4.04473 15.2029 4.23406 14.9676 4.23406C14.7322 4.23406 14.5417 4.04473 14.5417 3.81079C14.5417 3.57684 14.7322 3.38752 14.9676 3.38752ZM14.9676 4.33142C15.2029 4.33142 15.3934 4.52074 15.3934 4.75469C15.3934 4.98864 15.2029 5.17796 14.9676 5.17796C14.7322 5.17796 14.5417 4.98864 14.5417 4.75469C14.5417 4.52074 14.7322 4.33142 14.9676 4.33142ZM14.9676 6.24628C15.2029 6.24628 15.3934 6.4356 15.3934 6.66955C15.3934 6.9035 15.2029 7.09282 14.9676 7.09282C14.7322 7.09282 14.5417 6.9035 14.5417 6.66955C14.5417 6.4356 14.7322 6.24628 14.9676 6.24628ZM14.0084 3.38752C14.2437 3.38752 14.4342 3.57684 14.4342 3.81079C14.4342 4.04473 14.2437 4.23406 14.0084 4.23406C13.773 4.23406 13.5825 4.04473 13.5825 3.81079C13.5825 3.57684 13.773 3.38752 14.0084 3.38752ZM14.0084 4.33142C14.2437 4.33142 14.4342 4.52074 14.4342 4.75469C14.4342 4.98864 14.2437 5.17796 14.0084 5.17796C13.773 5.17796 13.5825 4.98864 13.5825 4.75469C13.5825 4.52074 13.773 4.33142 14.0084 4.33142ZM14.0084 6.24628C14.2437 6.24628 14.4342 6.4356 14.4342 6.66955C14.4342 6.9035 14.2437 7.09282 14.0084 7.09282C13.773 7.09282 13.5825 6.9035 13.5825 6.66955C13.5825 6.4356 13.773 6.24628 14.0084 6.24628ZM13.0492 3.38752C13.2845 3.38752 13.475 3.57684 13.475 3.81079C13.475 4.04473 13.2845 4.23406 13.0492 4.23406C12.8138 4.23406 12.6233 4.04473 12.6233 3.81079C12.6233 3.57684 12.8138 3.38752 13.0492 3.38752ZM13.0492 4.33142C13.2845 4.33142 13.475 4.52074 13.475 4.75469C13.475 4.98864 13.2845 5.17796 13.0492 5.17796C12.8138 5.17796 12.6233 4.98864 12.6233 4.75469C12.6233 4.52074 12.8138 4.33142 13.0492 4.33142ZM13.0492 6.24628C13.2845 6.24628 13.475 6.4356 13.475 6.66955C13.475 6.9035 13.2845 7.09282 13.0492 7.09282C12.8138 7.09282 12.6233 6.9035 12.6233 6.66955C12.6233 6.4356 12.8138 6.24628 13.0492 6.24628ZM12.1185 2.49635C12.3539 2.49635 12.5444 2.68567 12.5444 2.91962C12.5444 3.15357 12.3539 3.34289 12.1185 3.34289C11.8832 3.34289 11.6927 3.15357 11.6927 2.91962C11.6927 2.68567 11.8832 2.49635 12.1185 2.49635ZM12.1185 3.44026C12.3539 3.44026 12.5444 3.62958 12.5444 3.86353C12.5444 4.09747 12.3539 4.2868 12.1185 4.2868C11.8832 4.2868 11.6927 4.09747 11.6927 3.86353C11.6927 3.62958 11.8832 3.44026 12.1185 3.44026ZM5.43001 5.19013C5.19463 5.19013 5.00416 5.00081 5.00416 4.76686C5.00416 4.53292 5.19463 4.34359 5.43001 4.34359C5.66539 4.34359 5.85587 4.53292 5.85587 4.76686C5.85587 5.00081 5.66539 5.19013 5.43001 5.19013ZM5.43001 4.24623C5.19463 4.24623 5.00416 4.05691 5.00416 3.82296C5.00416 3.58901 5.19463 3.39969 5.43001 3.39969C5.66539 3.39969 5.85587 3.58901 5.85587 3.82296C5.85587 4.05691 5.66539 4.24623 5.43001 4.24623ZM6.38921 5.19013C6.15383 5.19013 5.96335 5.00081 5.96335 4.76686C5.96335 4.53292 6.15383 4.34359 6.38921 4.34359C6.62459 4.34359 6.81507 4.53292 6.81507 4.76686C6.81507 5.00081 6.62459 5.19013 6.38921 5.19013ZM6.38921 4.24623C6.15383 4.24623 5.96335 4.05691 5.96335 3.82296C5.96335 3.58901 6.15383 3.39969 6.38921 3.39969C6.62459 3.39969 6.81507 3.58901 6.81507 3.82296C6.81507 4.05691 6.62459 4.24623 6.38921 4.24623ZM6.38921 3.30232C6.15383 3.30232 5.96335 3.113 5.96335 2.87905C5.96335 2.6451 6.15383 2.45578 6.38921 2.45578C6.62459 2.45578 6.81507 2.6451 6.81507 2.87905C6.81507 3.113 6.62459 3.30232 6.38921 3.30232ZM11.1607 2.4977C11.3961 2.4977 11.5866 2.68702 11.5866 2.92097C11.5866 3.15492 11.3961 3.34424 11.1607 3.34424C10.9253 3.34424 10.7349 3.15492 10.7349 2.92097C10.7349 2.68702 10.9253 2.4977 11.1607 2.4977ZM11.1321 5.34835C11.3675 5.34835 11.558 5.53768 11.558 5.77162C11.558 6.00557 11.3675 6.19489 11.1321 6.19489C10.8968 6.19489 10.7063 6.00557 10.7063 5.77162C10.7063 5.53768 10.8968 5.34835 11.1321 5.34835ZM11.1321 6.29226C11.3675 6.29226 11.558 6.48158 11.558 6.71553C11.558 6.94948 11.3675 7.1388 11.1321 7.1388C10.8968 7.1388 10.7063 6.94948 10.7063 6.71553C10.7063 6.48158 10.8968 6.29226 11.1321 6.29226ZM10.2015 3.44161C10.4369 3.44161 10.6274 3.63093 10.6274 3.86488C10.6274 4.09883 10.4369 4.28815 10.2015 4.28815C9.96613 4.28815 9.77565 4.09883 9.77565 3.86488C9.77565 3.63093 9.96613 3.44161 10.2015 3.44161ZM10.1729 5.34835C10.4083 5.34835 10.5988 5.53768 10.5988 5.77162C10.5988 6.00557 10.4083 6.19489 10.1729 6.19489C9.93756 6.19489 9.74708 6.00557 9.74708 5.77162C9.74708 5.53768 9.93756 5.34835 10.1729 5.34835ZM10.1729 6.29226C10.4083 6.29226 10.5988 6.48158 10.5988 6.71553C10.5988 6.94948 10.4083 7.1388 10.1729 7.1388C9.93756 7.1388 9.74708 6.94948 9.74708 6.71553C9.74708 6.48158 9.93756 6.29226 10.1729 6.29226ZM9.26544 3.39157C9.50082 3.39157 9.6913 3.58089 9.6913 3.81484C9.6913 4.04879 9.50082 4.23811 9.26544 4.23811C9.03006 4.23811 8.83959 4.04879 8.83959 3.81484C8.83959 3.58089 9.03006 3.39157 9.26544 3.39157ZM7.34841 2.45578C7.58378 2.45578 7.77426 2.6451 7.77426 2.87905C7.77426 3.113 7.58378 3.30232 7.34841 3.30232C7.11303 3.30232 6.92255 3.113 6.92255 2.87905C6.92255 2.6451 7.11303 2.45578 7.34841 2.45578ZM7.34841 3.39969C7.58378 3.39969 7.77426 3.58901 7.77426 3.82296C7.77426 4.05691 7.58378 4.24623 7.34841 4.24623C7.11303 4.24623 6.92255 4.05691 6.92255 3.82296C6.92255 3.58901 7.11303 3.39969 7.34841 3.39969ZM7.34841 4.34359C7.58378 4.34359 7.77426 4.53292 7.77426 4.76686C7.77426 5.00081 7.58378 5.19013 7.34841 5.19013C7.11303 5.19013 6.92255 5.00081 6.92255 4.76686C6.92255 4.53292 7.11303 4.34359 7.34841 4.34359ZM7.36882 6.15297C7.13344 6.15297 6.94296 5.96365 6.94296 5.7297C6.94296 5.49575 7.13344 5.30643 7.36882 5.30643C7.60419 5.30643 7.79467 5.49575 7.79467 5.7297C7.79467 5.96365 7.60419 6.15297 7.36882 6.15297ZM8.30761 4.34359C8.54298 4.34359 8.73346 4.53292 8.73346 4.76686C8.73346 5.00081 8.54298 5.19013 8.30761 5.19013C8.07223 5.19013 7.88175 5.00081 7.88175 4.76686C7.88175 4.53292 8.07223 4.34359 8.30761 4.34359ZM8.32801 6.15297C8.09264 6.15297 7.90216 5.96365 7.90216 5.7297C7.90216 5.49575 8.09264 5.30643 8.32801 5.30643C8.56339 5.30643 8.75387 5.49575 8.75387 5.7297C8.75387 5.96365 8.56339 6.15297 8.32801 6.15297ZM9.2668 4.34359C9.50218 4.34359 9.69266 4.53292 9.69266 4.76686C9.69266 5.00081 9.50218 5.19013 9.2668 5.19013C9.03143 5.19013 8.84095 5.00081 8.84095 4.76686C8.84095 4.53292 9.03143 4.34359 9.2668 4.34359ZM8.86135 5.7297C8.86135 5.49575 9.05183 5.30643 9.28721 5.30643C9.52259 5.30643 9.71307 5.49575 9.71307 5.7297C9.71307 5.96365 9.52259 6.15297 9.28721 6.15297C9.05183 6.15297 8.86135 5.96365 8.86135 5.7297Z" fill="#020202"/>
<path d="M59.0322 17.6638C58.9968 17.6638 58.9723 17.6773 58.96 17.7057L58.6009 18.3548C58.5886 18.3751 58.5873 18.3913 58.5954 18.4048C58.6036 18.4183 58.6199 18.4251 58.643 18.4251H58.858C58.8866 18.4251 58.9097 18.4116 58.9301 18.3832L59.3369 17.7341C59.3492 17.7138 59.3519 17.6976 59.3464 17.684C59.341 17.6705 59.326 17.6638 59.3015 17.6638H59.0322Z" fill="#020202"/>
<path d="M32.527 22.6186H30.4127C30.3964 22.6186 30.3882 22.6105 30.3882 22.5943V18.8795C30.3882 18.8403 30.3678 18.82 30.3283 18.82H30.0222C29.9828 18.82 29.9623 18.8403 29.9623 18.8795V22.9283C29.9623 22.9675 29.9828 22.9878 30.0222 22.9878H32.5256C32.5651 22.9878 32.5855 22.9675 32.5855 22.9283V22.6781C32.5855 22.6389 32.5651 22.6186 32.5256 22.6186H32.527Z" fill="#020202"/>
<path d="M35.1447 18.8673C35.1325 18.8362 35.1094 18.82 35.0726 18.82H34.6658C34.6304 18.82 34.606 18.8362 34.5937 18.8673L33.2699 22.9215C33.2576 22.9648 33.274 22.9864 33.3175 22.9864H33.6413C33.6767 22.9864 33.7012 22.9702 33.7134 22.9391L33.9529 22.1886C33.957 22.1764 33.9651 22.171 33.9774 22.171H35.7679C35.7801 22.171 35.7883 22.1764 35.7924 22.1886L36.0318 22.9391C36.0441 22.9715 36.0672 22.9864 36.1039 22.9864H36.4277C36.4631 22.9864 36.4822 22.9729 36.4822 22.9445L36.4767 22.9202L35.1475 18.866L35.1447 18.8673ZM35.6631 21.8167C35.6631 21.8167 35.6495 21.8261 35.6427 21.8261H34.0971C34.0889 21.8261 34.0821 21.8234 34.0767 21.8167C34.0713 21.8113 34.0699 21.8045 34.074 21.7964L34.8522 19.3677C34.8563 19.3595 34.8617 19.3555 34.8699 19.3555C34.8781 19.3555 34.8835 19.3595 34.8876 19.3677L35.6658 21.7964C35.6699 21.8045 35.6686 21.8113 35.6631 21.8167Z" fill="#020202"/>
<path d="M39.391 18.82H36.6182C36.5788 18.82 36.5583 18.8403 36.5583 18.8795V19.1351C36.5583 19.1743 36.5788 19.1946 36.6182 19.1946H37.7448C37.7611 19.1946 37.7693 19.2027 37.7693 19.2189V22.9283C37.7693 22.9675 37.7897 22.9878 37.8291 22.9878H38.1352C38.1747 22.9878 38.1951 22.9675 38.1951 22.9283V19.2189C38.1951 19.2027 38.2033 19.1946 38.2196 19.1946H39.3938C39.4332 19.1946 39.4536 19.1743 39.4536 19.1351V18.8795C39.4536 18.8403 39.4332 18.82 39.3938 18.82H39.391Z" fill="#020202"/>
<path d="M40.3312 18.82H40.636C40.6686 18.82 40.6958 18.847 40.6958 18.8795V22.9283C40.6958 22.9607 40.6686 22.9878 40.636 22.9878H40.3299C40.2972 22.9878 40.27 22.9607 40.27 22.9283V18.8795C40.27 18.847 40.2972 18.82 40.3299 18.82H40.3312Z" fill="#020202"/>
<path d="M44.6864 18.82H44.3802C44.3408 18.82 44.3204 18.8403 44.3204 18.8795L44.3258 22.1602C44.3258 22.1723 44.3217 22.1791 44.3136 22.1804C44.3054 22.1818 44.3 22.1777 44.2959 22.1656L42.2537 18.8605C42.2333 18.8335 42.2101 18.8186 42.1816 18.8186H41.8822C41.8428 18.8186 41.8224 18.8389 41.8224 18.8781V22.9269C41.8224 22.9661 41.8428 22.9864 41.8822 22.9864H42.1884C42.2278 22.9864 42.2482 22.9661 42.2482 22.9269L42.2428 19.6462C42.2428 19.6341 42.2469 19.6273 42.255 19.6259C42.2632 19.6246 42.2687 19.6286 42.2727 19.6408L44.3149 22.9445C44.3353 22.9729 44.3585 22.9864 44.387 22.9864H44.6864C44.7258 22.9864 44.7462 22.9661 44.7462 22.9269V18.8781C44.7462 18.8389 44.7258 18.8186 44.6864 18.8186V18.82Z" fill="#020202"/>
<path d="M47.9177 18.9444C47.7 18.8294 47.4497 18.7713 47.1653 18.7713C46.881 18.7713 46.632 18.8294 46.417 18.9444C46.2007 19.0593 46.0347 19.2216 45.9163 19.4299C45.7979 19.6381 45.7394 19.8788 45.7394 20.1533V21.653C45.7394 21.9262 45.7979 22.1683 45.9163 22.3765C46.0347 22.5848 46.2007 22.7471 46.417 22.862C46.632 22.9769 46.8823 23.0351 47.1653 23.0351C47.4483 23.0351 47.7 22.9769 47.9177 22.862C48.1354 22.7471 48.3027 22.5848 48.4211 22.3765C48.5395 22.1683 48.598 21.9276 48.598 21.653V20.1533C48.598 19.8802 48.5395 19.6381 48.4211 19.4299C48.3027 19.2216 48.1354 19.0593 47.9177 18.9444ZM48.1721 21.6706C48.1721 21.9722 48.0796 22.2142 47.8959 22.3968C47.7123 22.5794 47.4687 22.67 47.1653 22.67C46.8619 22.67 46.6238 22.5794 46.4401 22.3968C46.2565 22.2142 46.1639 21.9722 46.1639 21.6706V20.1466C46.1639 19.845 46.2551 19.6016 46.4401 19.4177C46.6238 19.2324 46.866 19.1405 47.1653 19.1405C47.4646 19.1405 47.7123 19.2324 47.8959 19.4177C48.0796 19.603 48.1721 19.845 48.1721 20.1466V21.6706Z" fill="#020202"/>
<path d="M51.1191 18.8673C51.1069 18.8362 51.0837 18.82 51.047 18.82H50.6402C50.6048 18.82 50.5803 18.8362 50.5681 18.8673L49.2442 22.9215C49.232 22.9648 49.2483 22.9864 49.2919 22.9864H49.6157C49.6511 22.9864 49.6755 22.9702 49.6878 22.9391L49.9272 22.1886C49.9313 22.1764 49.9395 22.171 49.9517 22.171H51.7422C51.7545 22.171 51.7627 22.1764 51.7667 22.1886L52.0062 22.9391C52.0184 22.9715 52.0416 22.9864 52.0783 22.9864H52.4021C52.4375 22.9864 52.4565 22.9729 52.4565 22.9445L52.4511 22.9202L51.1218 18.866L51.1191 18.8673ZM51.6375 21.8167C51.6375 21.8167 51.6239 21.8261 51.6171 21.8261H50.0715C50.0633 21.8261 50.0565 21.8234 50.0511 21.8167C50.0456 21.8113 50.0443 21.8045 50.0483 21.7964L50.8266 19.3677C50.8307 19.3595 50.8361 19.3555 50.8443 19.3555C50.8524 19.3555 50.8579 19.3595 50.862 19.3677L51.6402 21.7964C51.6443 21.8045 51.6429 21.8113 51.6375 21.8167Z" fill="#020202"/>
<path d="M56.3314 18.82H56.0199C55.9913 18.82 55.9682 18.8335 55.9478 18.8619L54.8335 20.5523C54.8335 20.5523 54.8239 20.5577 54.8158 20.5577C54.8076 20.5577 54.8022 20.5563 54.7981 20.5523L53.6715 18.8551C53.6552 18.8308 53.6321 18.82 53.5994 18.82H53.2879C53.2484 18.82 53.228 18.8403 53.228 18.8795V22.9283C53.228 22.9675 53.2484 22.9878 53.2879 22.9878H53.594C53.6334 22.9878 53.6539 22.9675 53.6539 22.9283V19.6354C53.6539 19.6232 53.6579 19.6151 53.6661 19.6111C53.6743 19.607 53.6797 19.6111 53.6838 19.6232L54.6607 21.1C54.6811 21.1243 54.7042 21.1351 54.7328 21.1351H54.8879C54.9151 21.1351 54.9396 21.1216 54.96 21.0932L55.9369 19.6043C55.941 19.5921 55.9464 19.5881 55.9546 19.5921C55.9627 19.5962 55.9668 19.6043 55.9668 19.6165V22.9269C55.9668 22.9661 55.9872 22.9864 56.0267 22.9864H56.3328C56.3723 22.9864 56.3927 22.9661 56.3927 22.9269V18.8781C56.3927 18.8389 56.3723 18.8186 56.3328 18.8186L56.3314 18.82Z" fill="#020202"/>
<path d="M59.0322 17.6638C58.9968 17.6638 58.9723 17.6773 58.96 17.7057L58.6009 18.3548C58.5886 18.3751 58.5873 18.3913 58.5954 18.4048C58.6036 18.4183 58.6199 18.4251 58.643 18.4251H58.858C58.8866 18.4251 58.9097 18.4116 58.9301 18.3832L59.3369 17.7341C59.3492 17.7138 59.3519 17.6976 59.3464 17.684C59.341 17.6705 59.326 17.6638 59.3015 17.6638H59.0322Z" fill="#020202"/>
<path d="M60.1641 18.82H57.5709C57.5315 18.82 57.511 18.8403 57.511 18.8795V22.9283C57.511 22.9675 57.5315 22.9878 57.5709 22.9878H60.1641C60.2036 22.9878 60.224 22.9675 60.224 22.9283V22.6781C60.224 22.6389 60.2036 22.6186 60.1641 22.6186H57.96C57.9437 22.6186 57.9355 22.6105 57.9355 22.5942V21.1C57.9355 21.0837 57.9437 21.0756 57.96 21.0756H59.5056C59.5451 21.0756 59.5655 21.0553 59.5655 21.0161V20.7659C59.5655 20.7267 59.5451 20.7064 59.5056 20.7064H57.96C57.9437 20.7064 57.9355 20.6983 57.9355 20.6821V19.2121C57.9355 19.1959 57.9437 19.1878 57.96 19.1878H60.1641C60.2036 19.1878 60.224 19.1675 60.224 19.1283V18.8781C60.224 18.8389 60.2036 18.8186 60.1641 18.8186V18.82Z" fill="#020202"/>
<path d="M63.0404 21.0824C63.0322 21.0702 63.0363 21.0607 63.0526 21.0526C63.3125 20.9972 63.5179 20.8714 63.669 20.678C63.8213 20.4833 63.8962 20.248 63.8962 19.9694C63.8962 19.6287 63.79 19.3514 63.5792 19.1391C63.3669 18.9268 63.0894 18.82 62.7465 18.82H61.1955C61.156 18.82 61.1356 18.8403 61.1356 18.8795V22.9283C61.1356 22.9675 61.156 22.9878 61.1955 22.9878H61.5016C61.541 22.9878 61.5614 22.9675 61.5614 22.9283V21.1067C61.5614 21.0905 61.5696 21.0824 61.5859 21.0824H62.6036C62.6159 21.0824 62.624 21.0878 62.6281 21.1L63.5084 22.9458C63.5207 22.9742 63.5438 22.9878 63.5805 22.9878H63.8975C63.9288 22.9878 63.9452 22.9742 63.9452 22.9458C63.9452 22.9337 63.9438 22.9242 63.9397 22.9161L63.0417 21.0824H63.0404ZM61.5846 20.7429C61.5683 20.7429 61.5601 20.7348 61.5601 20.7186V19.2121C61.5601 19.1959 61.5683 19.1878 61.5846 19.1878H62.6989C62.9302 19.1878 63.1179 19.2608 63.2622 19.4055C63.4064 19.5502 63.4771 19.7382 63.4771 19.9681C63.4771 20.198 63.405 20.3846 63.2622 20.5279C63.1179 20.6713 62.9302 20.7429 62.6989 20.7429H61.5846Z" fill="#020202"/>
<path d="M64.8608 18.82H65.1656C65.1982 18.82 65.2254 18.847 65.2254 18.8795V22.9283C65.2254 22.9607 65.1982 22.9878 65.1656 22.9878H64.8595C64.8268 22.9878 64.7996 22.9607 64.7996 22.9283V18.8795C64.7996 18.847 64.8268 18.82 64.8595 18.82H64.8608Z" fill="#020202"/>
<path d="M68.6704 20.1412L68.9765 20.1236C68.9928 20.1236 69.0064 20.1182 69.0187 20.106C69.0309 20.0938 69.0364 20.0776 69.0364 20.0587C69.0364 19.8044 68.9779 19.58 68.8595 19.3866C68.7411 19.1919 68.5765 19.0418 68.3656 18.9336C68.1534 18.8267 67.9085 18.7726 67.6282 18.7726C67.3479 18.7726 67.103 18.8267 66.8921 18.9363C66.6799 19.0458 66.5153 19.1986 66.3982 19.3974C66.2799 19.5962 66.2214 19.8247 66.2214 20.0817V21.7193C66.2214 21.9817 66.2799 22.2129 66.3982 22.413C66.5166 22.6132 66.6812 22.7687 66.8921 22.8769C67.1044 22.9864 67.3493 23.0405 67.6282 23.0405C67.9071 23.0405 68.1534 22.9864 68.3656 22.8796C68.5779 22.7728 68.7425 22.6199 68.8595 22.4239C68.9779 22.2278 69.0364 22.0006 69.0364 21.7423C69.0364 21.7071 69.016 21.6882 68.9765 21.6882L68.6704 21.6706C68.6309 21.6706 68.6105 21.6882 68.6105 21.7247V21.7369C68.6105 22.0182 68.5207 22.244 68.3411 22.413C68.1615 22.5821 67.9234 22.6659 67.6282 22.6659C67.333 22.6659 67.0949 22.5807 66.9153 22.4103C66.7357 22.2399 66.6459 22.0155 66.6459 21.7382V20.0709C66.6459 19.7936 66.7357 19.5691 66.9153 19.3988C67.0949 19.2284 67.333 19.1432 67.6282 19.1432C67.9234 19.1432 68.1615 19.227 68.3411 19.3961C68.5207 19.5651 68.6105 19.7896 68.6105 20.0722V20.0898C68.6105 20.1249 68.6309 20.1439 68.6704 20.1439V20.1412Z" fill="#020202"/>
<path d="M71.5099 18.8673C71.4976 18.8362 71.4745 18.82 71.4378 18.82H71.031C70.9956 18.82 70.9711 18.8362 70.9588 18.8673L69.635 22.9215C69.6228 22.9648 69.6391 22.9864 69.6826 22.9864H70.0065C70.0418 22.9864 70.0663 22.9702 70.0786 22.9391L70.318 22.1886C70.3221 22.1764 70.3303 22.171 70.3425 22.171H72.133C72.1453 22.171 72.1534 22.1764 72.1575 22.1886L72.397 22.9391C72.4092 22.9715 72.4323 22.9864 72.4691 22.9864H72.7929C72.8283 22.9864 72.8473 22.9729 72.8473 22.9445L72.8419 22.9202L71.5126 18.866L71.5099 18.8673ZM72.0283 21.8167C72.0283 21.8167 72.0147 21.8261 72.0078 21.8261H70.4622C70.4541 21.8261 70.4473 21.8234 70.4418 21.8167C70.4364 21.8113 70.435 21.8045 70.4391 21.7964L71.2174 19.3677C71.2214 19.3595 71.2269 19.3555 71.235 19.3555C71.2432 19.3555 71.2487 19.3595 71.2527 19.3677L72.031 21.7964C72.0351 21.8045 72.0337 21.8113 72.0283 21.8167Z" fill="#020202"/>
<path d="M31.6794 8.52086L29.795 2.56127L29.7868 2.52611C29.7868 2.48554 29.8127 2.46526 29.8657 2.46526H30.5787C30.6317 2.46526 30.6671 2.48824 30.6848 2.53558L32.1379 7.37546C32.1433 7.38763 32.1529 7.39304 32.1637 7.39304C32.1746 7.39304 32.1841 7.38763 32.1896 7.37546L33.6427 2.53558C33.6604 2.4896 33.693 2.46526 33.7393 2.46526H34.4345C34.4985 2.46526 34.523 2.49771 34.5053 2.56127L32.6032 8.52086C32.5855 8.56819 32.5501 8.59118 32.4971 8.59118H31.7841C31.7311 8.59118 31.6957 8.56819 31.678 8.52086H31.6794Z" fill="#020202"/>
<path d="M38.3094 8.52086L37.9924 7.49717C37.987 7.47959 37.9747 7.47148 37.957 7.47148H35.4822C35.4645 7.47148 35.4522 7.47959 35.4468 7.49717L35.1298 8.52086C35.1121 8.56819 35.0767 8.59118 35.0236 8.59118H34.3107C34.2468 8.59118 34.2223 8.55873 34.24 8.49517L36.1679 2.53558C36.1856 2.4896 36.2209 2.46526 36.274 2.46526H37.1543C37.2074 2.46526 37.2427 2.48824 37.2604 2.53558L39.206 8.49517L39.2142 8.53033C39.2142 8.5709 39.1883 8.59118 39.1353 8.59118H38.4128C38.3598 8.59118 38.3244 8.56819 38.3067 8.52086H38.3094ZM35.6726 6.79262C35.6808 6.80073 35.6917 6.80614 35.7039 6.80614H37.7284C37.7407 6.80614 37.7502 6.80209 37.7597 6.79262C37.7679 6.78451 37.7706 6.77369 37.7638 6.76152L36.742 3.51464C36.7366 3.50247 36.7271 3.49706 36.7162 3.49706C36.7053 3.49706 36.6958 3.50247 36.6903 3.51464L35.6686 6.76152C35.6631 6.77369 35.6645 6.78315 35.6726 6.79262Z" fill="#020202"/>
<path d="M40.9462 8.41943C40.6196 8.2531 40.3679 8.01645 40.1883 7.71083C40.0088 7.40521 39.9203 7.05361 39.9203 6.65603V4.38957C39.9203 3.99335 40.0101 3.64445 40.1883 3.34424C40.3679 3.04403 40.6196 2.81008 40.9462 2.64375C41.2714 2.47742 41.6455 2.39493 42.0687 2.39493C42.4918 2.39493 42.8646 2.47471 43.187 2.63564C43.5095 2.79656 43.7612 3.0224 43.9394 3.31449C44.119 3.60659 44.2075 3.94467 44.2075 4.33007V4.33819C44.2075 4.36794 44.1993 4.39093 44.1816 4.40851C44.1639 4.42608 44.1435 4.4342 44.1204 4.4342L43.451 4.46936C43.3925 4.46936 43.3625 4.44367 43.3625 4.39093V4.36523C43.3625 3.992 43.2455 3.69179 43.0102 3.46325C42.7748 3.23606 42.4605 3.12247 42.0687 3.12247C41.6768 3.12247 41.3598 3.23606 41.1217 3.46325C40.8836 3.69043 40.7652 3.99064 40.7652 4.36523V6.69254C40.7652 7.06578 40.8836 7.36599 41.1217 7.59453C41.3598 7.82171 41.6754 7.93531 42.0687 7.93531C42.4619 7.93531 42.7761 7.82171 43.0102 7.59453C43.2455 7.36734 43.3625 7.06713 43.3625 6.69254V6.67496C43.3625 6.62222 43.3925 6.59653 43.451 6.59653L44.1204 6.63169C44.1789 6.63169 44.2088 6.66144 44.2088 6.71959C44.2088 7.10499 44.119 7.44442 43.9408 7.73922C43.7612 8.03403 43.5108 8.26257 43.1884 8.42619C42.8659 8.58982 42.4931 8.67096 42.07 8.67096C41.6469 8.67096 41.2727 8.58847 40.9475 8.42214L40.9462 8.41943Z" fill="#020202"/>
<path d="M46.4048 8.41132C46.0782 8.24499 45.8252 8.00833 45.6429 7.70271C45.4605 7.39709 45.3694 7.0455 45.3694 6.64792V2.5518C45.3694 2.49365 45.398 2.4639 45.4578 2.4639H46.1272C46.1857 2.4639 46.2157 2.49365 46.2157 2.5518V6.6655C46.2157 7.04414 46.3381 7.35112 46.5816 7.58371C46.8252 7.81766 47.1436 7.93396 47.5368 7.93396C47.93 7.93396 48.247 7.81766 48.4878 7.58371C48.7286 7.35112 48.8483 7.04414 48.8483 6.6655V2.5518C48.8483 2.49365 48.8783 2.4639 48.9368 2.4639H49.6062C49.6647 2.4639 49.6946 2.49365 49.6946 2.5518V6.64792C49.6946 7.04414 49.6048 7.39574 49.4266 7.70271C49.2484 8.00969 48.9953 8.24499 48.6688 8.41132C48.3436 8.57765 47.9653 8.66014 47.5368 8.66014C47.1082 8.66014 46.7313 8.57765 46.4048 8.41132Z" fill="#020202"/>
<path d="M54.7913 2.46524H55.4607C55.5192 2.46524 55.5491 2.49499 55.5491 2.55314V8.50462C55.5491 8.56277 55.5192 8.59252 55.4607 8.59252H54.8185C54.7777 8.59252 54.7423 8.57224 54.7124 8.53167L51.9572 4.05961C51.9518 4.04203 51.9423 4.03527 51.9314 4.03797C51.9191 4.04068 51.9137 4.05149 51.9137 4.06907L51.9219 8.50598C51.9219 8.56413 51.8919 8.59388 51.8334 8.59388H51.164C51.1055 8.59388 51.0756 8.56413 51.0756 8.50598V2.55179C51.0756 2.49364 51.1042 2.46389 51.164 2.46389H51.8157C51.8566 2.46389 51.8919 2.48418 51.9219 2.52475L54.6688 6.99681C54.6743 7.01439 54.6838 7.02115 54.6947 7.01844C54.7069 7.01574 54.7124 7.00492 54.7124 6.98734L54.7042 2.55044C54.7042 2.49229 54.7342 2.46254 54.7927 2.46254L54.7913 2.46524Z" fill="#020202"/>
<path d="M60.6376 8.52086L60.3206 7.49717C60.3152 7.47959 60.3029 7.47148 60.2852 7.47148H57.8117C57.7941 7.47148 57.7818 7.47959 57.7764 7.49717L57.4594 8.52086C57.4417 8.56819 57.4063 8.59118 57.3532 8.59118H56.6403C56.575 8.59118 56.5519 8.55873 56.5695 8.49517L58.4975 2.53558C58.5152 2.4896 58.5505 2.46526 58.6036 2.46526H59.4839C59.5369 2.46526 59.5723 2.48824 59.59 2.53558L61.5356 8.49517L61.5438 8.53033C61.5438 8.5709 61.5179 8.59118 61.4649 8.59118H60.7424C60.6893 8.59118 60.654 8.56819 60.6363 8.52086H60.6376ZM58.0009 6.79262C58.009 6.80073 58.0199 6.80614 58.0322 6.80614H60.0567C60.0689 6.80614 60.0784 6.80209 60.088 6.79262C60.0961 6.78451 60.0975 6.77369 60.0921 6.76152L59.0703 3.51464C59.0648 3.50247 59.0553 3.49706 59.0444 3.49706C59.0335 3.49706 59.024 3.50247 59.0186 3.51464L57.9968 6.76152C57.9913 6.77369 57.9927 6.78315 58.0009 6.79262Z" fill="#020202"/>
<path d="M62.9316 8.45054C62.5996 8.31125 62.3451 8.11246 62.1656 7.85553C61.986 7.59859 61.8975 7.29838 61.8975 6.95354V6.69931C61.8975 6.64116 61.9275 6.61141 61.986 6.61141H62.6281C62.6866 6.61141 62.7166 6.64116 62.7166 6.69931V6.90892C62.7166 7.20642 62.8458 7.45119 63.1043 7.64457C63.3628 7.83659 63.718 7.93396 64.1697 7.93396C64.5751 7.93396 64.8799 7.85012 65.0853 7.67973C65.2908 7.51069 65.3928 7.28891 65.3928 7.01439C65.3928 6.83319 65.3397 6.67902 65.2336 6.55056C65.1275 6.42209 64.9738 6.30444 64.771 6.19625C64.5683 6.08807 64.2731 5.95825 63.8867 5.80679C63.4581 5.64316 63.1193 5.49441 62.8703 5.36053C62.6213 5.22665 62.4132 5.0495 62.2499 4.83043C62.0853 4.61135 62.0036 4.33548 62.0036 4.00282C62.0036 3.50111 62.1846 3.10759 62.5452 2.82091C62.9057 2.53557 63.3941 2.39223 64.0118 2.39223C64.4459 2.39223 64.8282 2.46525 65.1561 2.6113C65.4853 2.75735 65.7384 2.96155 65.918 3.22389C66.0976 3.48624 66.186 3.79051 66.186 4.13399V4.30844C66.186 4.36659 66.1561 4.39634 66.0976 4.39634H65.4377C65.3792 4.39634 65.3493 4.36794 65.3493 4.30844V4.17727C65.3493 3.87435 65.2268 3.62147 64.9833 3.41998C64.7397 3.21848 64.4037 3.11841 63.9751 3.11841C63.6105 3.11841 63.3288 3.19279 63.1302 3.34154C62.9302 3.4903 62.8309 3.70531 62.8309 3.98524C62.8309 4.17727 62.8812 4.33548 62.9805 4.45719C63.0799 4.58025 63.2282 4.68979 63.4254 4.7858C63.6214 4.88181 63.9234 5.00623 64.3275 5.15768C64.7438 5.32131 65.0812 5.47142 65.3397 5.608C65.5983 5.74458 65.8119 5.92579 65.9819 6.15027C66.152 6.37476 66.2377 6.65333 66.2377 6.986C66.2377 7.49987 66.0486 7.90691 65.6704 8.20713C65.2921 8.50734 64.771 8.65744 64.1071 8.65744C63.6554 8.65744 63.2635 8.58712 62.9316 8.44783V8.45054Z" fill="#020202"/>
<path d="M33.5855 10.4492C33.859 10.598 34.0699 10.8062 34.2196 11.0753C34.3692 11.3445 34.444 11.6528 34.444 12.003C34.444 12.3533 34.3679 12.6589 34.2155 12.9212C34.0631 13.1836 33.8468 13.3878 33.5678 13.5338C33.2889 13.6799 32.9678 13.7529 32.6032 13.7529H31.0535C31.0304 13.7529 31.0181 13.7651 31.0181 13.7881V16.2736C31.0181 16.3317 30.9882 16.3615 30.9297 16.3615H30.2603C30.2018 16.3615 30.1719 16.3317 30.1719 16.2736V10.314C30.1719 10.2559 30.2018 10.2261 30.2603 10.2261H32.6372C32.995 10.2261 33.3107 10.3005 33.5842 10.4492H33.5855ZM33.3039 12.782C33.4998 12.5899 33.5991 12.3357 33.5991 12.0206C33.5991 11.7055 33.5012 11.4418 33.3039 11.2457C33.1066 11.051 32.8467 10.9523 32.5243 10.9523H31.0535C31.0304 10.9523 31.0181 10.9645 31.0181 10.9875V13.0348C31.0181 13.0578 31.0304 13.07 31.0535 13.07H32.5243C32.8467 13.07 33.1066 12.974 33.3039 12.7806V12.782Z" fill="#020202"/>
<path d="M38.7761 16.2898L38.4591 15.2661C38.4536 15.2486 38.4414 15.2404 38.4237 15.2404H35.9488C35.9311 15.2404 35.9189 15.2486 35.9135 15.2661L35.5964 16.2898C35.5788 16.3372 35.5434 16.3601 35.4903 16.3601H34.7774C34.7134 16.3601 34.689 16.3277 34.7066 16.2641L36.6346 10.3045C36.6522 10.2586 36.6876 10.2342 36.7407 10.2342H37.621C37.674 10.2342 37.7094 10.2572 37.7271 10.3045L39.6727 16.2641L39.6809 16.2993C39.6809 16.3399 39.655 16.3601 39.602 16.3601H38.8795C38.8264 16.3601 38.7911 16.3372 38.7734 16.2898H38.7761ZM36.1393 14.5616C36.1475 14.5697 36.1584 14.5751 36.1706 14.5751H38.1951C38.2074 14.5751 38.2169 14.5711 38.2264 14.5616C38.2346 14.5535 38.2373 14.5427 38.2305 14.5305L37.2087 11.2836C37.2033 11.2714 37.1938 11.266 37.1829 11.266C37.172 11.266 37.1625 11.2714 37.157 11.2836L36.1352 14.5305C36.1298 14.5427 36.1311 14.5521 36.1393 14.5616Z" fill="#020202"/>
<path d="M44.1027 16.2993L42.87 13.6826C42.8646 13.665 42.8523 13.6569 42.8347 13.6569H41.5666C41.5435 13.6569 41.5312 13.6691 41.5312 13.6921V16.2736C41.5312 16.3318 41.5013 16.3615 41.4428 16.3615H40.7734C40.7149 16.3615 40.685 16.3318 40.685 16.2736V10.3221C40.685 10.264 40.7149 10.2342 40.7734 10.2342H43.1421C43.4945 10.2342 43.8034 10.3072 44.0714 10.4533C44.3381 10.5993 44.5449 10.8035 44.6918 11.0659C44.8388 11.3282 44.9122 11.6325 44.9122 11.976C44.9122 12.3844 44.8048 12.7306 44.5911 13.0132C44.3762 13.2958 44.0796 13.4879 43.6973 13.5866C43.6741 13.5987 43.6673 13.6123 43.6796 13.6299L44.9558 16.2547C44.9612 16.2668 44.9639 16.2804 44.9639 16.2979C44.9639 16.3385 44.9408 16.3588 44.8932 16.3588H44.1979C44.1503 16.3588 44.119 16.3385 44.1013 16.2979L44.1027 16.2993ZM41.5312 10.9956V12.9564C41.5312 12.9794 41.5435 12.9916 41.5666 12.9916H43.0374C43.349 12.9916 43.5979 12.8996 43.7857 12.7157C43.9735 12.5318 44.0673 12.2884 44.0673 11.9855C44.0673 11.6825 43.9735 11.4283 43.7857 11.2417C43.5979 11.0551 43.349 10.9618 43.0374 10.9618H41.5666C41.5435 10.9618 41.5312 10.9739 41.5312 10.9969V10.9956Z" fill="#020202"/>
<path d="M49.9749 16.2898L49.6579 15.2661C49.6524 15.2486 49.6402 15.2404 49.6225 15.2404H47.1476C47.1299 15.2404 47.1177 15.2486 47.1122 15.2661L46.7952 16.2898C46.7776 16.3372 46.7422 16.3601 46.6891 16.3601H45.9762C45.9122 16.3601 45.8877 16.3277 45.9054 16.2641L47.8334 10.3045C47.851 10.2586 47.8864 10.2342 47.9395 10.2342H48.8198C48.8728 10.2342 48.9082 10.2572 48.9259 10.3045L50.8715 16.2641L50.8797 16.2993C50.8797 16.3399 50.8538 16.3601 50.8007 16.3601H50.0783C50.0252 16.3601 49.9898 16.3372 49.9722 16.2898H49.9749ZM47.3381 14.5616C47.3463 14.5697 47.3572 14.5751 47.3694 14.5751H49.3939C49.4062 14.5751 49.4157 14.5711 49.4252 14.5616C49.4334 14.5535 49.4361 14.5427 49.4293 14.5305L48.4075 11.2836C48.4021 11.2714 48.3925 11.266 48.3817 11.266C48.3708 11.266 48.3612 11.2714 48.3558 11.2836L47.334 14.5305C47.3286 14.5427 47.3299 14.5521 47.3381 14.5616Z" fill="#020202"/>
<path d="M53.6471 16.2722V10.3208C53.6471 10.2626 53.677 10.2329 53.7355 10.2329H54.4049C54.4634 10.2329 54.4933 10.2626 54.4933 10.3208V15.5974C54.4933 15.6204 54.5056 15.6326 54.5287 15.6326H57.5668C57.6254 15.6326 57.6553 15.6624 57.6553 15.7205V16.2722C57.6553 16.3304 57.6254 16.3601 57.5668 16.3601H53.7369C53.6784 16.3601 53.6484 16.3304 53.6484 16.2722H53.6471Z" fill="#020202"/>
<path d="M62.5928 16.2898L62.2758 15.2661C62.2703 15.2486 62.2581 15.2404 62.2404 15.2404H59.7669C59.7492 15.2404 59.7369 15.2486 59.7315 15.2661L59.4145 16.2898C59.3968 16.3372 59.3614 16.3601 59.3084 16.3601H58.5954C58.5301 16.3601 58.507 16.3277 58.5247 16.2641L60.4526 10.3045C60.4703 10.2586 60.5057 10.2342 60.5587 10.2342H61.439C61.4921 10.2342 61.5275 10.2572 61.5451 10.3045L63.4907 16.2641L63.4989 16.2993C63.4989 16.3399 63.4731 16.3601 63.42 16.3601H62.6975C62.6445 16.3601 62.6091 16.3372 62.5914 16.2898H62.5928ZM59.956 14.5616C59.9642 14.5697 59.975 14.5751 59.9873 14.5751H62.0118C62.0241 14.5751 62.0336 14.5711 62.0431 14.5616C62.0513 14.5535 62.0526 14.5427 62.0472 14.5305L61.0254 11.2836C61.02 11.2714 61.0104 11.266 60.9996 11.266C60.9887 11.266 60.9791 11.2714 60.9737 11.2836L59.9519 14.5305C59.9465 14.5427 59.9478 14.5521 59.956 14.5616Z" fill="#020202"/>
<path d="M67.1221 16.1816C66.7969 16.0153 66.5438 15.7787 66.3643 15.473C66.1847 15.1674 66.0962 14.8158 66.0962 14.4182V12.1775C66.0962 11.7745 66.186 11.4215 66.3643 11.1186C66.5438 10.8157 66.7956 10.5804 67.1221 10.4141C67.4473 10.2477 67.8228 10.1653 68.2446 10.1653C68.6663 10.1653 69.0405 10.2464 69.3629 10.41C69.6854 10.5736 69.9371 10.7995 70.1153 11.0889C70.2949 11.3783 70.3834 11.7028 70.3834 12.0652V12.1613C70.3834 12.2194 70.3534 12.2492 70.2949 12.2492H69.6255C69.567 12.2492 69.5371 12.2194 69.5371 12.1613V12.0828C69.5371 11.7326 69.4187 11.4486 69.1806 11.2295C68.9425 11.0104 68.631 10.9009 68.2432 10.9009C67.8554 10.9009 67.5343 11.0145 67.2962 11.2417C67.0581 11.4689 66.9398 11.7731 66.9398 12.1518V14.4453C66.9398 14.8239 67.0636 15.1282 67.3098 15.3554C67.5561 15.5826 67.8786 15.6962 68.2786 15.6962C68.6786 15.6962 68.9725 15.5961 69.1983 15.3946C69.4242 15.1931 69.5371 14.9172 69.5371 14.567V13.8935C69.5371 13.8706 69.5248 13.8584 69.5017 13.8584H68.3126C68.2541 13.8584 68.2241 13.8286 68.2241 13.7705V13.2282C68.2241 13.1701 68.2527 13.1403 68.3126 13.1403H70.2936C70.3521 13.1403 70.382 13.1701 70.382 13.2282V14.3398C70.382 15.0106 70.1902 15.5271 69.8051 15.8882C69.4201 16.2506 68.9003 16.4305 68.2418 16.4305C67.8187 16.4305 67.4445 16.348 67.1194 16.1816H67.1221Z" fill="#020202"/>
<path d="M75.6678 10.9604H72.5426C72.5194 10.9604 72.5072 10.9726 72.5072 10.9956V12.8766C72.5072 12.8996 72.5194 12.9118 72.5426 12.9118H74.6909C74.7494 12.9118 74.7793 12.9415 74.7793 12.9997V13.5514C74.7793 13.6096 74.7494 13.6393 74.6909 13.6393H72.5426C72.5194 13.6393 72.5072 13.6515 72.5072 13.6745V15.6002C72.5072 15.6232 72.5194 15.6353 72.5426 15.6353H75.6678C75.7263 15.6353 75.7562 15.6651 75.7562 15.7232V16.275C75.7562 16.3331 75.7263 16.3629 75.6678 16.3629H71.7494C71.6908 16.3629 71.6609 16.3331 71.6609 16.275V10.3235C71.6609 10.2653 71.6895 10.2356 71.7494 10.2356H75.6678C75.7263 10.2356 75.7562 10.2653 75.7562 10.3235V10.8752C75.7562 10.9334 75.7263 10.9631 75.6678 10.9631V10.9604Z" fill="#020202"/>
<path d="M80.642 10.2342H81.3114C81.3699 10.2342 81.3999 10.264 81.3999 10.3221V16.2736C81.3999 16.3317 81.3699 16.3615 81.3114 16.3615H80.6692C80.6284 16.3615 80.593 16.3412 80.5631 16.3006L77.8066 11.8286C77.8012 11.811 77.7916 11.8042 77.7807 11.8069C77.7685 11.8097 77.7631 11.8205 77.7631 11.8381L77.7712 16.275C77.7712 16.3331 77.7413 16.3629 77.6828 16.3629H77.0134C76.9549 16.3629 76.925 16.3331 76.925 16.275V10.3235C76.925 10.2653 76.9535 10.2356 77.0134 10.2356H77.6651C77.7059 10.2356 77.7413 10.2559 77.7712 10.2964L80.5182 14.7685C80.5236 14.7861 80.5332 14.7928 80.5441 14.7901C80.5563 14.7874 80.5617 14.7766 80.5617 14.759L80.5536 10.3221C80.5536 10.264 80.5835 10.2342 80.642 10.2342Z" fill="#020202"/>
<path d="M86.8584 10.3221V10.882C86.8584 10.9401 86.8285 10.9699 86.77 10.9699H85.0788C85.0557 10.9699 85.0434 10.982 85.0434 11.005V16.2736C85.0434 16.3318 85.0135 16.3615 84.955 16.3615H84.2856C84.2271 16.3615 84.1972 16.3318 84.1972 16.2736V11.005C84.1972 10.982 84.1849 10.9699 84.1618 10.9699H82.5509C82.4924 10.9699 82.4624 10.9415 82.4624 10.882V10.3221C82.4624 10.264 82.4924 10.2342 82.5509 10.2342H86.7686C86.8271 10.2342 86.8571 10.264 86.8571 10.3221H86.8584Z" fill="#020202"/>
<path d="M91.9115 10.9604H88.7863C88.7632 10.9604 88.751 10.9726 88.751 10.9956V12.8766C88.751 12.8996 88.7632 12.9118 88.7863 12.9118H90.9347C90.9932 12.9118 91.0231 12.9415 91.0231 12.9997V13.5514C91.0231 13.6096 90.9932 13.6393 90.9347 13.6393H88.7863C88.7632 13.6393 88.751 13.6515 88.751 13.6745V15.6002C88.751 15.6232 88.7632 15.6353 88.7863 15.6353H91.9115C91.9701 15.6353 92 15.6651 92 15.7232V16.275C92 16.3331 91.9701 16.3629 91.9115 16.3629H87.9931C87.9346 16.3629 87.9047 16.3331 87.9047 16.275V10.3235C87.9047 10.2653 87.9333 10.2356 87.9931 10.2356H91.9115C91.9701 10.2356 92 10.2653 92 10.3235V10.8752C92 10.9334 91.9701 10.9631 91.9115 10.9631V10.9604Z" fill="#020202"/>
</g>
<defs>
<clipPath id="clip0_633_130">
<rect width="115" height="24.8036" fill="white" transform="translate(115 2)"/>
</clipPath>
<clipPath id="clip1_633_130">
<rect width="92" height="25" fill="white"/>
</clipPath>
</defs>
</svg>
