<svg width="17" height="13" viewBox="0 0 17 13" fill="none" xmlns="http://www.w3.org/2000/svg">
<path d="M16.0848 0.114088C15.3082 0.494613 14.5471 0.649153 13.755 0.882905C12.8845 -0.0994725 11.5938 -0.153833 10.3536 0.310563C9.11339 0.77496 8.30108 1.91032 8.31894 3.21265V3.98924C5.79893 4.05369 3.55461 2.9059 2.10628 0.882905C2.10628 0.882905 -1.14139 6.65524 5.21261 9.42532C3.75885 10.3937 2.30897 11.0468 0.553116 10.9785C3.12205 12.3787 5.92163 12.8601 8.34535 12.1566C11.1255 11.3489 13.4102 9.26534 14.287 6.14425C14.5485 5.19501 14.6784 4.21434 14.6729 3.22974C14.6714 3.03637 15.8456 1.07705 16.0848 0.113311V0.114088Z" fill="#0F1116"/>
</svg>
