<svg width="24" height="24" viewBox="0 0 24 24" fill="none" xmlns="http://www.w3.org/2000/svg">
<path d="M10.5806 24H0.466599C0.209036 24 0 23.7898 0 23.5308V0.46919C0 0.210197 0.209036 0 0.466599 0H10.5806C10.8382 0 11.0472 0.210197 11.0472 0.46919V23.5308C11.0472 23.7898 10.8382 24 10.5806 24ZM0.933199 23.0616H10.114V0.93838H0.933199V23.0616Z" fill="#252525"/>
<path d="M23.5334 15.0497H12.7083C12.4507 15.0497 12.2436 14.8433 12.2417 14.5843C12.2417 14.5843 12.2417 14.5824 12.2417 14.5805V0.46919C12.2398 0.210197 12.447 0 12.7046 0H23.5297C23.7872 0 23.9963 0.210197 23.9963 0.46919V14.5805C23.9963 14.8377 23.7891 15.0479 23.5334 15.0497ZM13.1712 14.1114H23.0631V0.93838H13.1712V14.1114Z" fill="#252525"/>
<path d="M23.5334 24H12.7083C12.4507 24 12.2436 23.7936 12.2417 23.5346C12.2417 23.5346 12.2417 23.5327 12.2417 23.5308V16.7745C12.2417 16.5155 12.447 16.3072 12.7046 16.3053C12.7046 16.3053 12.7064 16.3053 12.7083 16.3053H23.5334C23.791 16.3053 24 16.5155 24 16.7745V23.5308C24 23.7898 23.791 24 23.5334 24ZM13.1712 23.0616H23.0631V17.2437H13.1712V23.0616Z" fill="#252525"/>
</svg>
