<svg width="25" height="24" viewBox="0 0 25 24" fill="none" xmlns="http://www.w3.org/2000/svg">
<path d="M24.5408 23.086H0.916547V0.456066C0.916547 0.205418 0.71056 0 0.457329 0C0.204097 0 0 0.205418 0 0.456066V23.5439C0 23.7965 0.204097 24 0.455439 24H24.5389C24.7921 24 24.9981 23.7984 25 23.5458C25 23.2933 24.7978 23.0879 24.5446 23.086H24.5408Z" fill="#252525"/>
<path d="M3.57926 20.2478C3.80415 20.3628 4.08006 20.2742 4.19533 20.0499L7.38718 13.8327L10.7718 16.8122C10.9608 16.9781 11.2499 16.9611 11.4181 16.7727C11.454 16.7331 11.4842 16.6879 11.505 16.6389L14.111 10.1258L18.0172 14.8561C18.1779 15.0502 18.467 15.0784 18.6635 14.9183C18.7259 14.8674 18.775 14.7995 18.8034 14.7223L21.6267 6.95594C21.7288 6.72414 21.6248 6.45276 21.3924 6.351C21.16 6.24923 20.8878 6.35288 20.7858 6.58468C20.7782 6.60353 20.7707 6.62426 20.765 6.64311L18.2119 13.6575L14.3227 8.94794C14.1621 8.75382 13.8729 8.72556 13.6783 8.88574C13.6197 8.93474 13.5725 8.99693 13.5441 9.06855L10.8927 15.6985L7.55348 12.7585C7.36451 12.5908 7.07537 12.6097 6.90718 12.7981C6.88261 12.8264 6.85993 12.8584 6.84292 12.8923L3.37894 19.6316C3.26556 19.8558 3.35438 20.131 3.57926 20.244C3.57926 20.244 3.57926 20.244 3.58115 20.244L3.57926 20.2478Z" fill="#252525"/>
<path d="M21.8875 5.42755C22.1918 5.42755 22.4393 5.18068 22.4393 4.87726C22.4393 4.57384 22.1918 4.32697 21.8875 4.32697C21.5833 4.32697 21.3357 4.57384 21.3357 4.87726C21.3357 5.18068 21.5814 5.42755 21.8856 5.42755H21.8875Z" fill="#252525"/>
</svg>
