<svg width="26" height="25" viewBox="0 0 26 25" fill="none" xmlns="http://www.w3.org/2000/svg">
<g clip-path="url(#clip0_450_2762)">
<g opacity="0.48">
<path d="M24.8787 5.01224H1.00499V0.362305H24.8806V5.01224H24.8787Z" fill="#252525"/>
</g>
<g opacity="0.48">
<path d="M24.8787 24.6397H1.00499V19.9897H24.8806V24.6397H24.8787Z" fill="#252525"/>
</g>
<g opacity="0.48">
<path d="M1.00498 7.51025C9.24512 10.4001 17.3155 13.7754 25.1762 17.6187L1.00498 7.51025Z" fill="#252525"/>
<path d="M24.9454 19.9408C17.06 16.1328 8.61581 12.8338 0.362328 9.96549L1.10606 5.06104C9.50638 7.9763 17.6817 11.1715 25.7063 15.0462L24.9435 19.9408H24.9454Z" fill="#252525"/>
</g>
<g opacity="0.48">
<path d="M1.00499 17.6266C1.00499 17.6266 13.3452 12.0369 25.0408 7.37915L1.00499 17.6266Z" fill="#252525"/>
<path d="M0.917266 20.1366L0.165909 15.2361C0.291771 15.1793 13.4043 9.4858 25.1361 4.86523L25.7845 9.80297C14.127 14.3942 1.04122 20.0798 0.917266 20.1366Z" fill="#252525"/>
</g>
<path d="M0.957313 25H0.287957C0.129676 25 0 24.8238 0 24.6084V0.391573C0 0.176208 0.129676 0 0.287957 0H0.957313C1.11559 0 1.24527 0.176208 1.24527 0.391573V24.6084C1.24527 24.8238 1.11559 25 0.957313 25Z" fill="#252525"/>
<path d="M25.712 25H25.0427C24.8844 25 24.7547 24.8238 24.7547 24.6084V0.391573C24.7547 0.176208 24.8844 0 25.0427 0H25.712C25.8703 0 26 0.176208 26 0.391573V24.6084C26 24.8238 25.8703 25 25.712 25Z" fill="#252525"/>
</g>
<defs>
<clipPath id="clip0_450_2762">
<rect width="26" height="25" fill="white"/>
</clipPath>
</defs>
</svg>
