<svg width="29" height="28" viewBox="0 0 29 28" fill="none" xmlns="http://www.w3.org/2000/svg">
<g clip-path="url(#clip0_450_859)">
<path d="M28.4689 26.9347H1.06226V0.532644C1.06226 0.238923 0.824013 0 0.531128 0C0.238242 0 0 0.238923 0 0.532644V27.4674C0 27.7611 0.238242 28 0.531128 28H28.4689C28.7618 28 29 27.7611 29 27.4674C29 27.1736 28.7618 26.9347 28.4689 26.9347Z" fill="#252525"/>
<path d="M9.2543 19.2607C9.05103 19.0568 9.01168 18.7631 9.16906 18.6075C9.16906 18.6075 9.17124 18.6053 9.17343 18.6031L23.6691 4.06388C23.8221 3.90387 24.1128 3.93675 24.3204 4.1406C24.3204 4.1406 24.3248 4.14499 24.327 4.14718C24.5302 4.35103 24.5696 4.64475 24.4122 4.80038C24.4122 4.80038 24.41 4.80257 24.4078 4.80476L9.9122 19.3418C9.7592 19.5018 9.4685 19.4689 9.26085 19.2651C9.26085 19.2651 9.25648 19.2607 9.2543 19.2585V19.2607Z" fill="#252525"/>
<path d="M13.9885 24.4863C13.1033 24.4863 12.3842 23.7674 12.3842 22.8774C12.3842 21.9897 13.1011 21.2685 13.9885 21.2685C14.8738 21.2685 15.5929 21.9875 15.5929 22.8774C15.5929 22.8796 15.5929 22.8818 15.5929 22.884C15.5885 23.7695 14.8716 24.4863 13.9885 24.4863ZM13.9885 22.0686C13.5383 22.0686 13.1733 22.4346 13.1733 22.8862C13.1733 23.3377 13.5383 23.7038 13.9885 23.7038C14.4388 23.7038 14.8038 23.3377 14.8038 22.8862C14.8038 22.4346 14.4388 22.0686 13.9885 22.0686Z" fill="#252525"/>
<path d="M16.7513 8.08172C15.8661 8.07515 15.1535 7.34961 15.1601 6.45968C15.1666 5.57194 15.8901 4.85736 16.7775 4.86394C17.6584 4.87051 18.3687 5.58947 18.3687 6.47283C18.3731 7.35619 17.6605 8.07734 16.7775 8.08172C16.7688 8.08172 16.76 8.08172 16.7513 8.08172ZM16.7513 5.65742C16.301 5.65742 15.936 6.02348 15.936 6.47502C15.936 6.92656 16.301 7.29262 16.7513 7.29262C17.2015 7.29262 17.5666 6.92656 17.5666 6.47502C17.5666 6.02348 17.2015 5.65742 16.7513 5.65742Z" fill="#252525"/>
<path d="M8.56143 21.5995C7.67621 21.5995 6.95712 20.8805 6.95712 19.9906C6.95712 19.1007 7.67403 18.3817 8.56143 18.3817C9.44882 18.3817 10.1657 19.1007 10.1657 19.9906C10.1657 20.8783 9.44882 21.5995 8.56143 21.5995ZM8.56143 19.1752C8.11117 19.1752 7.74616 19.5413 7.74616 19.9928C7.74616 20.4443 8.11117 20.8104 8.56143 20.8104C9.01168 20.8104 9.3767 20.4443 9.3767 19.9928C9.37233 19.5434 9.0095 19.1796 8.56143 19.1752Z" fill="#252525"/>
<path d="M21.715 26.1653C19.9009 26.1653 18.4299 24.6901 18.4299 22.8708C18.4299 21.0515 19.9009 19.5763 21.715 19.5763C23.5292 19.5763 25.0002 21.0515 25.0002 22.8708C25.0002 24.6901 23.5292 26.1653 21.715 26.1653ZM21.715 20.5759C20.4473 20.5802 19.4244 21.6126 19.4288 22.8818C19.4331 24.1531 20.4626 25.179 21.7281 25.1746C22.9915 25.1702 24.0144 24.1422 24.0144 22.8752C24.0144 21.6039 22.9871 20.5759 21.7216 20.5759C21.7194 20.5759 21.7172 20.5759 21.715 20.5759Z" fill="#252525"/>
<path d="M10.0237 8.19133C8.20953 8.19133 6.73854 6.71615 6.73854 4.89683C6.73854 3.07751 8.20953 1.60233 10.0237 1.60233C11.8378 1.60233 13.3088 3.07751 13.3088 4.89683C13.3088 6.71615 11.8378 8.19133 10.0237 8.19133ZM10.0237 2.60186C8.75595 2.60624 7.73304 3.63865 7.73741 4.90779C7.74179 6.17912 8.77125 7.20496 10.0368 7.20057C11.3001 7.19619 12.323 6.16816 12.323 4.90121C12.323 3.62988 11.2957 2.60186 10.0302 2.60186C10.028 2.60186 10.0259 2.60186 10.0237 2.60186Z" fill="#252525"/>
<path d="M9.19747 13.9343C8.08057 13.9343 7.1735 13.0268 7.1735 11.9045C7.1735 10.7822 8.07838 9.87476 9.19747 9.87476C10.3166 9.87476 11.2214 10.7822 11.2214 11.9045C11.2214 13.0268 10.3166 13.9343 9.19747 13.9343ZM9.19747 10.4929C8.41717 10.4951 7.78768 11.1307 7.78987 11.9133C7.79206 12.6958 8.42591 13.3271 9.20621 13.3249C9.98432 13.3227 10.6138 12.6892 10.6138 11.9089C10.6138 11.1264 9.98214 10.4929 9.20184 10.4929C9.20184 10.4929 9.19965 10.4929 9.19747 10.4929Z" fill="#252525"/>
<path d="M18.3294 17.6606C17.2125 17.6606 16.3054 16.7531 16.3054 15.6308C16.3054 14.5085 17.2103 13.6011 18.3294 13.6011C19.4484 13.6011 20.3533 14.5085 20.3533 15.6308C20.3533 16.7531 19.4484 17.6606 18.3294 17.6606ZM18.3294 14.2192C17.5491 14.2214 16.9196 14.8571 16.9218 15.6396C16.924 16.4221 17.5578 17.0534 18.3381 17.0512C19.1162 17.049 19.7457 16.4155 19.7457 15.6352C19.7457 14.8527 19.114 14.2192 18.3337 14.2192C18.3337 14.2192 18.3316 14.2192 18.3294 14.2192Z" fill="#252525"/>
<path d="M4.67523 23.8528C4.47196 23.649 4.32989 23.4583 4.36049 23.4276L7.1888 20.5912C7.21503 20.5583 7.403 20.6942 7.60846 20.8981C7.60846 20.8981 7.61283 20.9025 7.61501 20.9047C7.81828 21.1085 7.96035 21.2992 7.92975 21.3299L5.10145 24.1663C5.07522 24.1992 4.88725 24.0633 4.68179 23.8594C4.68179 23.8594 4.67742 23.855 4.67523 23.8528Z" fill="#252525"/>
</g>
<defs>
<clipPath id="clip0_450_859">
<rect width="29" height="28" fill="white"/>
</clipPath>
</defs>
</svg>
